<?xml version="1.0" standalone="no"?>
<!DOCTYPE svg PUBLIC "-//W3C//DTD SVG 1.1//EN" "http://www.w3.org/Graphics/SVG/1.1/DTD/svg11.dtd" >
<svg xmlns="http://www.w3.org/2000/svg">
<metadata></metadata>
<defs>
<font id="queens_parkregular" horiz-adv-x="1024" >
<font-face units-per-em="2048" ascent="1638" descent="-410" />
<missing-glyph horiz-adv-x="512" />
<glyph horiz-adv-x="0" />
<glyph horiz-adv-x="682" />
<glyph unicode=" "  horiz-adv-x="512" />
<glyph unicode="&#x09;" horiz-adv-x="512" />
<glyph unicode="&#xa0;" horiz-adv-x="512" />
<glyph unicode="!" horiz-adv-x="569" d="M166 90q0 -45 35 -84q35 -33 82 -33t82 35t34 82q0 33 -14 60q-18 29 -45 43q-26 14 -57 14q-47 0 -82 -35t-35 -82zM176 1260l6 -156l4 -84l33 -318l19 -153q0 -10 2 -27q6 -57 8 -69q2 -27 2 -76l20 -10l56 53l4 102l12 125l27 271l18 149q2 45 6 63q2 10 2 58l4 110 l4 111h-71q-41 -25 -74 -43q-35 -14 -80 -37q-2 -8 -2 -35v-34z" />
<glyph unicode="&#x22;" horiz-adv-x="759" d="M150 1339l2 -59l30 -457q0 -12 11 -22q10 -10 20 -10q12 4 20 14q10 10 11 29l37 466l2 15v24v25q0 35 -19 53q-18 18 -49 19q-66 0 -65 -97zM477 1339l2 -59l31 -457q0 -33 31 -32q31 0 30 43l37 466l2 15v24v25q0 72 -67 72q-66 0 -66 -97z" />
<glyph unicode="#" horiz-adv-x="1241" d="M104 463h230l-70 -463h103l69 463h312l-66 -463h102l68 463h231v102h-215l45 309h224v103h-209l63 432h-102l-64 -432h-311l64 432h-101l-65 -432h-250v-103h235l-47 -309h-246v-102zM453 565l45 309h313l-47 -309h-311z" />
<glyph unicode="$" d="M57 88q23 -10 31 -12q27 -12 37 -17q25 -10 63 -20q16 -6 35 -12q10 -2 31 -7q18 -2 33 -6q4 0 12 -2q10 0 14 -2l70 -6q18 0 37 -2h39l-6 -104v-52q-2 -23 -2 -49h88l-2 109l-2 100q16 4 67 17l29 6q37 10 61 18q63 27 107 62q86 72 129 161q41 92 41 207q0 96 -37 158 q-37 59 -98 92q-66 37 -127 45q-43 10 -172 29v530q111 -12 141 -26q47 -20 98 -68l17 -178h59q0 45 2 65q2 14 2 31q0 16 2 31q8 45 12 65q2 20 11 58l-7 14q-76 43 -145 57q-47 14 -63 17q-25 6 -43 6q-10 2 -21 2q-12 0 -22 2h-43l8 131h-88l4 -137q-117 -20 -207 -74 q-90 -53 -139 -141q-51 -88 -52 -205q0 -33 2 -47q2 -10 3 -21q2 -16 2 -20q10 -41 20 -72q35 -66 84 -98q53 -35 119 -49q41 -10 78 -17l90 -12v-569q-16 0 -49 4q-16 2 -45 6q-43 8 -78 25q-70 33 -131 94l-4 186h-62l-4 -92l-6 -84l-10 -61zM219 1051q0 123 64 192 q61 70 176 86v-520q-94 18 -144 45q-53 27 -75 76q-20 43 -21 121zM535 82v555q162 -35 215 -84q53 -53 53 -162q0 -135 -68 -209q-63 -71 -200 -100z" />
<glyph unicode="%" horiz-adv-x="1720" d="M223 938q0 -76 35 -145q33 -68 92 -105q59 -35 127 -35q43 0 94 23q49 23 80 55l6 6q18 23 27 31q8 10 23 35q4 6 6 8q33 45 55 96q51 106 51 176q0 31 -6 70q-6 41 -6 59q68 -12 104 -12q111 0 244 66l-813 -1364h113l915 1532h-82q-80 -57 -149 -97q-6 -2 -17 -8 q-12 -6 -18 -8q-4 -2 -6 -2q-18 -8 -21 -10q-27 -12 -53 -19q-49 -12 -111 -12q-113 0 -159 49q-49 55 -138 55q-106 0 -194 -63q-92 -63 -146 -168q-53 -102 -53 -213zM391 854q0 47 19 127q16 78 47 147q18 41 37 68q16 29 36 49q52 53 99 53q31 -29 47 -36q23 -14 43 -23 q12 -16 22 -49q6 -27 7 -60q0 -68 -29 -165q-33 -98 -88 -164q-57 -70 -133 -70q-45 0 -76 35q-31 37 -31 88zM903 252q0 -59 19 -115q20 -51 55 -88q70 -76 178 -76q86 0 168 66q80 66 127 174q45 104 45 233q0 115 -55 183q-55 66 -150 65q-104 0 -194 -65 q-90 -63 -142 -168q-51 -98 -51 -209zM1071 182q0 70 31 176q27 102 84 183q51 76 125 75q53 0 84 -47q31 -45 30 -127q0 -68 -30 -163q-35 -100 -88 -162q-59 -66 -136 -66q-45 0 -73 35q-27 39 -27 96z" />
<glyph unicode="&#x26;" horiz-adv-x="1593" d="M100 387q0 -88 31 -166q29 -74 86 -133q18 -18 64 -47q45 -29 69 -39q80 -29 164 -29q86 0 154 21l69 24q23 8 64 29q70 43 133 92q104 -84 196 -127q82 -39 162 -39q45 0 82 15q86 74 176 135l-14 47q-47 -31 -72 -39q-16 -8 -43 -8q-168 0 -362 139q94 100 131 178 q39 82 39 172l-2 41l-8 47l159 -8l60 -4l67 -10l11 76l12 65l-219 -4l-219 -4l-156 6l-64 -90l7 -16h43l71 -2l47 -9q37 -12 49 -41q12 -27 13 -94q0 -74 -25 -133q-25 -61 -76 -123q-88 82 -153 156q-68 74 -141 176q-63 90 -119 195q113 80 166 139q31 31 57 67 q25 33 39 66q31 66 31 141q0 51 -23 101q-20 41 -63 63q-41 23 -95 23q-41 0 -67 -9q-33 -8 -58 -24q-57 -41 -129 -107q-51 -45 -69 -92q-18 -45 -19 -129q0 -41 2 -59q2 -12 7 -37q2 -14 2 -16l18 -66l29 -80q-16 -10 -31 -20q-41 -29 -55 -39q-49 -37 -72 -58 q-72 -61 -115 -139q-41 -78 -41 -174zM274 459q0 86 43 153q37 63 132 131q92 -164 192 -297q102 -134 231 -253q-137 -100 -249 -101q-96 0 -179 51q-82 53 -125 133q-45 82 -45 183zM500 1118v31q0 90 35 137t98 47q41 0 72 -39t30 -94q0 -78 -45 -147q-45 -70 -139 -148 q-27 72 -39 137l-10 50q-2 8 -2 26z" />
<glyph unicode="'" horiz-adv-x="557" d="M37 1001q0 -8 18 -8q12 0 29 8q16 8 31 23l358 322l49 45q18 18 19 28v6q-8 14 -39 15q-66 0 -133 -68l-37 -41l-289 -315l-4 -10z" />
<glyph unicode="(" horiz-adv-x="681" d="M152 494q0 -37 4 -107q4 -63 8 -92q8 -78 33 -182q47 -178 131 -332q70 -117 106 -162q57 -68 160 -170l49 49q-37 49 -94 131l-2 4q-49 78 -72 119l-24 55q-16 29 -25 58q-100 256 -100 614l4 135l12 136q18 127 53 247q33 111 97 222q57 104 151 215l-43 55 q-109 -98 -158 -162q-8 -10 -10 -12q-27 -35 -41 -55l-55 -89q-23 -35 -43 -77q-23 -41 -37 -82q-12 -31 -33 -84q-8 -27 -24 -84q-18 -61 -23 -86q-6 -33 -12 -86q-12 -76 -12 -178z" />
<glyph unicode=")" horiz-adv-x="681" d="M39 -496l43 -55q225 209 338 455q111 244 110 540q0 113 -14 211q-12 111 -33 187q-45 182 -141 340q-94 152 -252 307l-51 -49q121 -162 190 -307q70 -147 99 -306q2 -6 2 -10q10 -55 12 -80q6 -43 6 -82q0 -18 2 -65l2 -35q0 -20 2 -39q2 -47 2 -57q0 -135 -16 -277 q-6 -53 -23 -127q-20 -78 -30 -114q-37 -117 -99 -226q-68 -117 -149 -211z" />
<glyph unicode="*" horiz-adv-x="796" d="M39 1102l4 -15l303 -49l-31 -24q-74 -59 -102 -82q-29 -23 -78 -62l-16 -12l-4 -14l51 -53l41 -52l39 6l147 250l43 -98l80 -176l35 2l98 98l-4 17l-205 202q23 2 39 4q29 4 45 7q12 2 49 6q12 2 25 4l143 14l19 25q-6 12 -17 28q-10 16 -16 29q-6 14 -14 31 q-8 16 -15 31l-16 6l-258 -129l27 127l41 155l-17 31q-29 -4 -59 -4h-13h-12h-14h-21h-22l26 -303l-251 145l-33 -8z" />
<glyph unicode="+" horiz-adv-x="1241" d="M174 623h385v-390h123v390l385 -2v120h-385v392h-123v-392h-385v-118z" />
<glyph unicode="," horiz-adv-x="512" d="M14 -266l31 -31l84 43q201 260 299 500l-29 30q-4 -2 -22 -10l-10 -4q-8 -4 -27 -8q-14 -6 -21 -8l-122 -33q-16 -131 -62 -244q-57 -139 -121 -235z" />
<glyph unicode="-" horiz-adv-x="684" d="M41 403h549l55 158h-549z" />
<glyph unicode="." horiz-adv-x="512" d="M139 90q0 -47 35 -82t82 -35q45 0 82 35q35 35 35 82q0 29 -17 57q-16 31 -43 46q-26 14 -57 14q-49 0 -84 -35q-33 -33 -33 -82z" />
<glyph unicode="/" horiz-adv-x="942" d="M188 -31h138l430 1479h-138z" />
<glyph unicode="0" d="M66 702q0 -31 6 -120q2 -23 2 -64q6 -92 20 -166q35 -162 125 -268q96 -111 279 -111q195 0 297 133t133 316q31 178 30 387q0 315 -106 471t-322 156q-264 0 -362 -215q-51 -102 -76 -238q-26 -125 -26 -281zM240 729q0 156 16 291q16 129 43 199q39 80 86 112 q45 33 121 33q96 0 158 -74q61 -74 81 -170l7 -18q6 -29 8 -37q2 -14 8 -45q0 -4 2 -14q6 -37 6 -91l4 -108l4 -107q0 -244 -26 -378q-27 -139 -84 -209q-57 -68 -150 -68q-98 0 -162 70q-63 70 -94 219l-2 16q-10 45 -14 72q-6 43 -6 86q0 49 -2 78l-2 71q-2 62 -2 72z" />
<glyph unicode="1" d="M66 1214l4 -51l4 -49q2 -4 6 -8q0 -2 4 -6q14 0 160 78q139 76 172 75q16 0 18 -24l2 -29l2 -31v-14v-14v-21v-925q0 -55 -12 -84q-12 -27 -43 -37q-37 -10 -100 -11l-97 -2v-69l174 4l172 4l175 -4l172 -4v69l-97 2l-49 3l-33 4q-35 10 -49 20q-16 16 -18 33 q-4 20 -4 35l-2 37v1216l-29 14q-115 -68 -238 -112q-129 -49 -294 -99z" />
<glyph unicode="2" d="M41 -6l141 2l174 4h172h162h84l78 -2l123 -4l10 6l-2 18q-8 63 -8 74l4 35l6 43l-10 10l-70 -8q-10 0 -20 -2h-23h-26l-93 -2l-116 -2h-367l115 117l108 106l117 119l86 90q6 8 25 29q35 37 51 59q35 41 55 74q45 70 68 139q20 68 20 148q0 113 -53 202q-53 90 -147 140 q-96 47 -220 47l-73 -4l-68 -13q-66 -16 -121 -49q-55 -35 -100 -84q0 -35 -10 -123l-25 -159h62l40 135q23 49 48 75q31 31 77 46q45 14 125 14q78 0 142 -37q63 -39 100 -104q35 -66 35 -146q0 -68 -19 -133q-18 -61 -55 -125q-37 -66 -100 -143q-86 -104 -156 -176 l-346 -361v-55z" />
<glyph unicode="3" d="M29 324l16 -48l12 -36q14 -45 23 -78q23 -90 29 -137q63 -25 122 -39q53 -12 123 -13q115 0 226 43q104 39 188 113q80 68 127 166q45 94 45 199q0 268 -324 299q16 12 35 30l23 23l4 2l51 49q45 49 74 113q27 55 26 131q0 63 -24 119q-29 59 -78 96q-51 41 -115 59 q-61 20 -145 21q-219 0 -348 -150l-53 -244h61q35 100 63 148q35 53 89 80q53 27 145 26q109 0 174 -69q68 -70 68 -178q0 -74 -33 -138q-35 -66 -96 -100q-57 -37 -129 -37l-41 2l-58 4l-20 -114l14 -11q100 51 189 52q82 0 141 -35q55 -35 90 -103q29 -68 29 -153 q0 -106 -37 -191q-37 -82 -111 -125q-72 -41 -170 -41q-96 0 -164 37q-66 39 -102 92q-35 47 -84 160z" />
<glyph unicode="4" d="M2 418l18 -60l58 4l213 5l276 2v-174q0 -55 -12 -84q-12 -27 -43 -37q-37 -10 -100 -11l-97 -2v-69l170 4l168 4l170 -4l170 -4v69l-96 2l-49 3l-33 4q-31 8 -47 18q-18 18 -20 31l-3 4q-2 12 -2 16q-2 6 -2 19v37v174l125 -2l99 -9l-2 29q-2 6 -2 29q-2 6 -3 28l7 62 l-56 -6l-55 -2l-113 -2v723l4 79q2 10 3 25q0 14 2 25v43v10v12l-29 12q-45 -23 -137 -55l-158 -246l-72 -114l-80 -131l-147 -244l-64 -109zM135 496l64 114l67 119l135 221q66 108 166 258v-714h-118l-50 -2h-53z" />
<glyph unicode="5" d="M25 301l36 -90l21 -41q4 -8 8 -18q2 -6 2 -9q2 -4 2 -8t2 -8q8 -12 10 -25q4 -10 9 -22l14 -49q72 -37 109 -47t104 -11q84 0 154 19q80 20 145 57q137 76 221 207q82 127 82 276q0 115 -53 209q-51 92 -146 142q-92 49 -213 49q-90 0 -155 -25q-70 -23 -139 -80l6 252 l10 164l258 4l137 2l152 -6h73l11 12l-6 39q-2 8 -2 23v18l2 33l6 45l-11 10l-75 -6q-25 0 -49 -2q-25 -2 -50 -2l-129 -4h-79q-188 0 -324 14l-16 -10l8 -70q0 -10 2 -18v-14v-23v-22q2 -10 2 -21v-26v-95q0 -61 -2 -116q0 -16 -2 -33q-2 -74 -2 -107l-6 -192l41 -14 q53 68 116 102q63 29 150 29q92 0 164 -41q68 -41 108 -121q39 -78 39 -178q0 -51 -10 -109q-8 -49 -31 -92q-39 -84 -117 -131q-76 -45 -178 -45q-82 0 -131 14q-57 18 -88 43q-37 31 -68 76q-25 33 -71 121z" />
<glyph unicode="6" d="M68 522q0 -125 30 -227q31 -109 88 -176q59 -74 138 -111q82 -35 182 -35q57 0 119 17q47 14 106 51q109 68 166 184q59 119 59 252q0 88 -26 160q-29 78 -70 121q-45 51 -110 76q-63 25 -148 24q-61 0 -121 -24q-55 -25 -92 -50l-121 -86q10 92 31 172q25 80 61 150 q78 139 205 233q123 90 299 138v16l-73 35q-162 -45 -295 -129t-230 -205q-94 -125 -147 -270q-51 -147 -51 -316zM256 457q0 282 262 282q76 0 139 -41q59 -39 95 -112q31 -74 30 -176q0 -111 -30 -195q-33 -82 -93 -125q-57 -45 -141 -45q-119 0 -190 111q-72 113 -72 301 z" />
<glyph unicode="7" d="M88 1403q8 -57 8 -88l2 -107l-4 -121l-2 -108h64l8 90l6 61l8 39q10 47 25 56q18 10 49 12l166 6l96 4h148l178 2l10 -8l-55 -106l-66 -119l-141 -240l-203 -340l-78 -131l-84 -137l-92 -150l16 -26q31 8 52 8h47l94 -4l92 227q41 102 98 219q49 98 72 148q27 53 68 131 q18 39 61 123l4 6l285 514v59l-88 -10h-74l-72 -2l-102 -2h-213q-47 0 -90 2q-18 2 -53 2q-37 0 -56 2l-166 6z" />
<glyph unicode="8" d="M51 348q0 -109 51 -196q53 -88 148 -134q90 -45 213 -45q92 0 184 35q84 33 156 101q66 63 104 149q37 86 37 184q0 94 -43 158q-41 70 -98 109q-63 43 -162 88v8q119 72 182 153q66 82 66 195q0 80 -47 145q-47 66 -127 103q-86 35 -183 35q-102 0 -180 -27 q-72 -27 -135 -76q-57 -45 -88 -116q-29 -74 -29 -150q0 -111 60 -195q39 -45 71 -73q41 -35 97 -66v-10q-276 -137 -277 -375zM195 326v32q0 61 14 107q18 55 41 88q56 82 160 143l151 -69q8 -4 19 -9q8 -4 10 -6q10 -6 12 -6q10 -6 12 -8l52 -35q51 -37 88 -94 q33 -51 32 -129q0 -84 -38 -154q-39 -68 -105 -104q-63 -37 -147 -37q-31 0 -66 6q-25 6 -59 17q-59 23 -97 61q-41 45 -59 98q-14 39 -16 62v6q-4 23 -4 31zM258 1135q0 72 33 122q31 51 84 80q51 27 129 27q111 0 176 -66q66 -68 65 -182q0 -92 -43 -164 q-47 -72 -139 -123l-74 37q-47 25 -73 39q-59 35 -94 72q-33 33 -50 76q-14 37 -14 82z" />
<glyph unicode="9" d="M59 958q0 -127 47 -225q47 -100 130 -145q41 -27 94 -39t108 -12q45 0 90 18q47 16 84 41l43 27l33 26l80 62q-14 -109 -43 -199q-37 -104 -86 -176q-8 -14 -31 -39l-2 -4l-31 -37q-37 -37 -73 -68q-80 -61 -109 -77l-14 -9l-8 -6q-6 -2 -27 -12q-16 -8 -53 -21 q-45 -16 -150 -40v-21l68 -35q170 31 309 113q139 84 240 199q98 117 153 270q53 154 54 319q0 270 -115 420q-113 147 -324 148q-98 0 -190 -35q-88 -37 -150 -101q-59 -63 -94 -149q-33 -86 -33 -193zM233 1016q0 160 76 254t199 94q76 0 139 -49q63 -51 96 -135 q33 -80 33 -199q0 -49 -8 -84q-6 -41 -20 -78q-27 -74 -86 -121q-57 -43 -150 -43q-125 0 -203 99q-76 96 -76 262z" />
<glyph unicode=":" horiz-adv-x="512" d="M139 90q0 -47 35 -82t82 -35q45 0 82 35q35 35 35 82q0 29 -17 57q-16 31 -43 46q-26 14 -57 14q-49 0 -84 -35q-33 -33 -33 -82zM139 823q0 -45 33 -82q37 -35 84 -34q47 0 84 34q33 33 33 82t-33 82q-37 35 -84 35q-49 0 -84 -35q-33 -33 -33 -82z" />
<glyph unicode=";" horiz-adv-x="512" d="M14 -274l31 -23l84 43q94 119 170 242q74 121 129 258l-27 30l-84 -30l-120 -33q-14 -92 -37 -174q-23 -74 -60 -154l-41 -78zM176 823q0 -47 35 -82t82 -34q49 0 84 34q33 33 33 82q0 29 -17 58q-16 31 -43 45q-26 14 -57 14q-45 0 -80 -35q-37 -33 -37 -82z" />
<glyph unicode="&#x3c;" horiz-adv-x="1241" d="M88 645l1065 -487v127l-895 415l895 420v127l-1065 -487v-115z" />
<glyph unicode="=" horiz-adv-x="1241" d="M184 465h873v129h-873v-129zM184 750h873v129h-873v-129z" />
<glyph unicode="&#x3e;" horiz-adv-x="1241" d="M86 158l1067 487v115l-1067 487v-127l897 -420l-897 -415v-127z" />
<glyph unicode="?" horiz-adv-x="909" d="M96 1124l6 -12l52 -6q33 74 88 156q70 35 127 34l53 -4l47 -12q49 -18 86 -47q33 -31 51 -70t19 -86q0 -76 -43 -147q-16 -27 -54 -76q-31 -43 -67 -86q-80 -86 -117 -141q-35 -59 -35 -123q0 -53 21 -86q20 -29 30 -39q14 -16 41 -37l43 31q-27 31 -36 57q-10 25 -11 45 q0 88 107 182l162 152q78 72 112 143q37 72 37 154q0 96 -47 174q-49 76 -133 117q-84 39 -203 39q-72 0 -133 -19q-41 -10 -63 -22q-41 -20 -62 -33zM291 90q0 -45 35 -84q37 -33 82 -33q47 0 81 35q35 35 35 82q0 33 -14 60q-18 29 -45 43q-26 14 -57 14q-45 0 -80 -35 q-37 -33 -37 -82z" />
<glyph unicode="@" horiz-adv-x="1529" d="M70 705q0 -82 14 -148q18 -84 41 -139q55 -133 158 -236q100 -100 233 -155q135 -53 287 -54q119 0 211 27q94 27 174 80q78 51 149 129q72 78 117 168h-100q-70 -104 -144 -172t-176 -109q-96 -39 -209 -39q-188 0 -340 82q-154 82 -241 232q-86 147 -86 331 q0 137 49 256q47 119 135 207q88 90 203 140q119 47 252 47q57 0 114 -11q49 -8 111 -28q109 -41 184 -109q78 -70 121 -160q27 -53 35 -94q10 -51 10 -102q0 -72 -26 -158q-25 -92 -74 -168q-53 -82 -113 -125q-66 -47 -137 -47q-57 0 -57 68l2 20l6 27q4 12 4 20l147 555 h-141l-33 -125q-43 143 -182 144q-106 0 -209 -68q-106 -72 -164 -174q-59 -106 -59 -219q0 -129 80 -213q78 -86 188 -86q70 0 125 37q53 31 113 113q23 -164 162 -164q49 0 129 34q74 33 139 93q59 55 102 120q45 70 66 148q20 74 20 170q0 127 -55 237q-61 113 -150 187 q-94 78 -213 121q-123 41 -241 41q-154 0 -287 -58q-133 -55 -233 -157q-100 -100 -156 -234q-29 -72 -41 -135q-14 -63 -14 -147zM475 553q0 27 2 43q0 8 4 25q2 12 4 20q8 35 29 98q47 109 117 185q72 74 153 73q66 0 95 -47q26 -45 26 -119q0 -47 -8 -88q-2 -12 -8 -34 l-2 -11l-13 -43q-25 -84 -63 -153q-6 -8 -8 -13q-23 -35 -33 -49q-14 -18 -45 -43q-45 -39 -96 -39q-66 0 -109 56q-45 53 -45 139z" />
<glyph unicode="A" horiz-adv-x="1593" d="M39 -8l233 8l119 -4l117 -4v69l-133 11q-39 0 -39 45q0 31 24 94q18 55 56 139l55 123h578l110 -278q31 -74 31 -93q0 -27 -23 -32q-20 -6 -57 -7l-98 -2v-69l125 4l145 4l148 -4l122 -4v69l-43 2l-34 5q-20 6 -29 12q-31 25 -43 41q-14 29 -31 61l-26 68l-504 1177h-70 l-41 -108l-51 -123l-57 -129l-275 -623l-55 -122l-49 -107l-45 -92q-25 -41 -60 -51q-37 -10 -100 -11v-69zM508 555l252 602l252 -602h-504z" />
<glyph unicode="B" horiz-adv-x="1251" d="M51 1348l88 -2q12 0 33 -5q6 -2 18 -4q8 -4 11 -4q23 -8 37 -37q12 -27 12 -82v-1019q0 -49 -4 -82q-10 -25 -23 -35q-18 -14 -67 -41v-45l188 8h78l96 -4l78 -2q170 0 301 61q131 57 207 168q72 109 72 246q0 102 -43 172q-45 72 -136 111q-6 2 -8 4q-59 23 -86 28 q-39 8 -69 13q-21 2 -64 2q121 41 193 88q76 51 108 117q33 63 33 153q0 141 -115 201q-115 59 -266 59l-64 -2h-61l-129 -4l-125 -2l-207 6l-86 2v-69zM436 94l4 31v25l-2 118l-2 119v354q61 4 115 4q188 0 301 -63t113 -244q0 -113 -43 -192q-45 -82 -129 -123 q-82 -43 -199 -43q-70 0 -158 14zM436 827v125l2 170l4 107l7 92l20 4q10 0 20 2h7q23 4 30 4l74 4q301 0 301 -233q0 -147 -90 -213t-285 -66z" />
<glyph unicode="C" horiz-adv-x="1452" d="M82 698q0 -154 61 -292q61 -135 170 -232q115 -98 262 -149t326 -52q45 0 64 2q14 2 30 2q23 2 29 3l16 2l99 18q113 31 235 90l12 31l13 29l14 34l-20 19q-170 -127 -455 -127q-180 0 -330 88q-150 90 -231 239q-84 152 -84 338q0 139 43 252q43 115 121 195 q78 78 186 121q113 41 250 41q72 0 133 -13q8 -2 35 -8q18 -2 31 -6l61 -23q66 -27 125 -67l8 -178h66q0 98 14 170q16 78 39 133l-156 33q-78 18 -176 32q-82 12 -151 13q-90 0 -181 -13q-94 -16 -168 -39q-164 -57 -268 -149q-106 -94 -166 -234q-57 -135 -57 -303z" />
<glyph unicode="D" horiz-adv-x="1585" d="M39 1348l90 -2q12 0 33 -5l16 -4l10 -4q25 -8 37 -37q12 -27 13 -82v-1019q0 -57 -7 -80q-6 -29 -20 -37q-10 -10 -68 -41v-45l90 4l82 4l78 2l170 -4l62 -2l65 -4q178 0 332 57q152 57 260 162q111 104 168 248q33 72 45 151q6 29 10 78t4 84q0 307 -198 479 q-70 61 -146 97q-86 39 -178 53q-18 4 -55 8t-53 4q-47 0 -68 2q-23 2 -55 2l-219 -4l-205 -4l-146 4l-86 2l-61 2v-69zM426 436v656q0 129 12 217q151 22 271 22h10q113 0 229 -41q117 -41 193 -110q78 -72 116 -183q41 -117 41 -268q0 -311 -161 -479q-162 -172 -469 -172 q-49 0 -105 6q-31 2 -98 10l-27 4l-10 215z" />
<glyph unicode="E" horiz-adv-x="1251" d="M59 -8l86 2l207 6l256 -4l191 -4l137 -2q102 0 219 12q0 143 27 336h-68l-18 -96l-33 -123q-63 -25 -123 -31q-55 -6 -174 -6l-145 4q-41 0 -80 2q-4 0 -35 2q-35 2 -47 2l-2 23v22q-2 6 -2 150v139v244q55 8 176 8l119 -2l77 -4q61 -10 76 -31q23 -27 23 -76l4 -43v-35 h67l-6 234l6 231h-67v-34l-4 -44l-4 -36l-9 -27q-8 -20 -34 -31q-25 -10 -45 -12l-48 -4h-36q-16 -2 -35 -2h-84l-107 6q-14 2 -37 2h-32v203l2 172l2 170q104 12 254 12l106 -4l84 -6q68 -8 133 -33q10 -82 11 -184h67l2 92l8 80q4 37 13 69q4 14 10 33q4 18 8 33l-149 6 l-72 4l-293 -4l-295 -4l-133 4l-154 4v-67l88 -2q41 -6 62 -15q23 -10 35 -37q14 -27 14 -82v-1019q0 -66 -25 -95q-29 -29 -53 -30l-49 -7q-8 0 -16 -2h-29h-27v-69z" />
<glyph unicode="F" horiz-adv-x="1138" d="M43 -8l147 4l146 4l147 -4l146 -4v69l-66 5l-47 2q-20 4 -33 8q-23 8 -39 37q-14 27 -14 82v475q57 8 176 8l119 -2l78 -4q57 -8 76 -31q23 -27 22 -76l2 -43l2 -35h68l-6 234l6 231h-68l-2 -34l-2 -44l-4 -36l-8 -27q-8 -20 -35 -31q-25 -10 -45 -12l-47 -4h-37 q-16 -2 -37 -2h-82l-104 6q-14 2 -37 2h-35v311q0 115 12 234q123 12 246 12l103 -4l83 -6q66 -8 138 -33q10 -78 10 -184h68l4 94l8 80q6 47 12 74q4 12 8 26q6 25 8 33q-127 10 -221 10l-147 -4l-209 -2l-231 -2l-125 4l-154 4v-69l88 -2q14 0 35 -5l16 -4q10 -4 11 -4 q23 -8 36 -37q12 -27 13 -82v-1019q0 -66 -25 -95q-29 -29 -53 -30l-49 -7q-8 0 -17 -2h-26h-29v-69z" />
<glyph unicode="G" horiz-adv-x="1562" d="M25 721q0 -176 57 -311q57 -141 162 -238q104 -98 250 -147q141 -51 321 -52l74 2l82 7l84 10l75 12l84 19l78 20q99 29 140 45l-9 55q-8 35 -8 64v45l-2 49q0 102 19 141q18 39 67 58l41 16v45l-16 -2h-27h-27l-69 -4l-70 -2l-145 4l-148 4v-69l68 -3h12q37 0 60 -8 q27 -10 36 -20q23 -29 23 -103l-6 -161v-66q-203 -72 -340 -72q-143 0 -264 50q-119 47 -209 141q-88 92 -135 213q-27 70 -35 129q-12 61 -12 141q0 147 43 260q45 117 124 195q82 82 193 121q117 41 266 41q115 0 228 -31q111 -29 196 -78q27 -20 33 -37q6 -18 6 -96v-66 h64l16 162q10 74 27 133q-20 6 -48 15q-14 4 -18 6q-20 4 -43 10q-29 8 -49 12q-70 18 -135 31q-119 25 -250 25q-195 0 -340 -41q-139 -41 -262 -133q-84 -68 -144 -154q-57 -84 -88 -184q-30 -97 -30 -197v-6z" />
<glyph unicode="H" horiz-adv-x="1703" d="M51 -8l148 4l145 4l148 -4l145 -4v69l-66 5l-47 2q-20 4 -32 8q-23 8 -39 37q-14 27 -15 82v503l66 4l147 5q49 0 94 2h109l197 -4l153 -3l66 -4v-503q0 -63 -23 -93q-20 -27 -57 -32l-57 -7q-8 0 -17 -2h-16h-29v-69l148 4l145 4l147 -4l146 -4v69q-6 2 -19 2h-18h-43 q-59 6 -76 15q-27 16 -35 43q-8 25 -8 74v1019q0 47 10 78q8 29 31 39q20 8 39 12l39 3l80 2v69l-146 -4l-86 -2l-61 -2l-145 4l-86 2l-62 2v-69l94 -2q14 0 31 -5l33 -10q18 -8 31 -37q10 -31 10 -80v-421l-41 -5h-25l-178 -4h-172l-350 4l-27 3l-39 2v421q0 47 11 78 q8 29 30 39q20 8 39 12l39 3l80 2v69l-145 -4l-86 -2l-62 -2l-145 4l-148 4v-69l88 -2q12 0 33 -5q6 -2 18 -4q8 -4 11 -4q23 -8 37 -37q12 -27 12 -82v-1019q0 -66 -25 -95q-29 -29 -53 -30l-49 -7q-8 0 -17 -2h-26h-29v-69z" />
<glyph unicode="I" horiz-adv-x="690" d="M55 -8l148 4l145 4l148 -4l145 -4v69l-66 5l-47 2q-20 4 -32 8q-23 8 -39 37q-14 27 -15 82v1019q0 47 11 78q8 29 30 39q20 8 39 12l39 3l80 2v69l-145 -4l-86 -2l-62 -2l-145 4l-148 4v-69l88 -2q12 0 33 -5q6 -2 19 -4q8 -4 10 -4q23 -8 37 -37q12 -27 12 -82v-1019 q0 -66 -25 -95q-29 -29 -53 -30l-49 -7q-8 0 -16 -2h-27h-29v-69z" />
<glyph unicode="J" horiz-adv-x="681" d="M-23 -240l3 -59v-12v-13l-3 -71l54 -6q76 0 145 43q72 41 127 108q55 68 86 135q31 61 41 138q10 76 10 239v952q0 47 11 78q8 29 30 39q20 8 39 12l39 3l80 2v69l-145 -4l-86 -2l-62 -2l-145 4l-148 4v-69l88 -2q27 0 58 -11q27 -12 41 -39q12 -27 12 -82v-1130 q0 -119 -6 -182q-10 -72 -23 -99q-14 -39 -43 -51q-27 -14 -69 -14q-59 0 -113 35z" />
<glyph unicode="K" horiz-adv-x="1486" d="M51 -8l148 4l145 4l148 -4l145 -4v69l-66 5l-47 2q-20 4 -32 8q-23 8 -39 37q-14 27 -15 82v446q0 39 23 39q12 0 20 -12l21 -21l688 -655l143 8l62 -6q10 0 20 -2h27h35v69q-66 10 -99 35q-39 29 -116 99l-631 585l471 434q66 59 108 86q41 23 74 31q37 10 64 12 q6 2 16 3q10 0 16 2h39v69l-174 -8l-76 6q-35 0 -53 2h-45v-69l-285 -295q-10 -10 -16 -23l-4 -4q-6 -8 -25 -27l-53 -55l-57 -55l-60 -53l-118 -101h-15v479q0 47 11 78q8 29 30 39q20 8 39 12l39 3l80 2v69l-145 -4l-86 -2l-62 -2l-145 4l-148 4v-69l88 -2q12 0 33 -5 q6 -2 18 -4q8 -4 11 -4q23 -8 37 -37q12 -27 12 -82v-1019q0 -66 -25 -95q-29 -29 -53 -30l-49 -7q-8 0 -17 -2h-26h-29v-69z" />
<glyph unicode="L" horiz-adv-x="1251" d="M57 1350l88 -2q41 -6 62 -15q23 -10 35 -37q14 -27 14 -82v-1019q0 -53 -6 -78q-10 -29 -23 -39q-20 -16 -65 -41v-45l76 4l84 4l69 2l316 -4l139 -2l98 -4q10 2 29 2h28l64 2l43 4l59 8l4 33q29 266 37 319h-65l-62 -235q-63 -18 -118 -25l-66 -8q-10 0 -20 -2h-23h-29 l-94 -2l-113 -2l-86 2l-88 4l2 14v17v20l-2 97v104v88v782q0 47 11 78q8 29 30 39q20 8 39 12l39 3l43 4h37v67l-145 -4l-148 -4l-145 4l-148 4v-67z" />
<glyph unicode="M" horiz-adv-x="1937" d="M39 -8l246 8l125 -4l118 -4v67l-67 4q-35 0 -45 3l-33 10q-23 8 -39 37q-14 27 -14 82v976l358 -741l98 -207q2 -4 9 -14q6 -14 12 -29q10 -23 35 -76q27 -53 30 -63q6 -14 15 -33l14 -35h41l43 105l43 100l78 170l111 234l296 618v-1005q0 -63 -22 -93q-20 -27 -57 -32 q-10 -2 -23 -7q-10 0 -20 -2q-16 0 -23 -2h-27h-26v-67l147 4l146 4l147 -4l146 -4v67l-43 2l-37 2q-59 6 -76 15q-27 16 -35 39t-8 78v1019q0 76 24 103q26 26 90 26h5l30 3l50 2v69l-41 -2h-52l-114 -4l-92 -2q-27 6 -46 6q-8 2 -24 2h-27q-76 -178 -137 -307l-154 -328 l-245 -501l-264 540l-95 195q-104 217 -184 401l-37 -4l-37 -4h-26l-131 4l-156 4v-69l88 -2q23 -2 59 -15q29 -8 37 -37q14 -23 15 -80v-1019q0 -66 -25 -95q-27 -29 -59 -32l-56 -7q-6 0 -12 -2h-20h-27v-67z" />
<glyph unicode="N" horiz-adv-x="1701" d="M39 -8l246 8l125 -4l118 -4v69l-65 5l-47 2q-20 4 -33 8q-23 8 -39 37q-14 27 -14 82v995l719 -887l133 -160l37 -47l45 -53q18 -20 47 -41q29 -10 73 -18q53 -12 99 -17l-10 142l-3 92l-4 100l-2 102v811q0 47 11 78q12 31 32 39t39 12l39 3l43 4h37v67l-244 -8l-125 4 l-120 4v-67h36l43 -4h17q4 0 14 -3l14 -2q20 -2 31 -10q27 -16 35 -39q8 -18 8 -78v-997l-80 84l-104 127l-82 102l-342 420l-170 213l-199 254l-35 -4l-36 -4l-131 4l-156 4v-67l88 -2q41 -6 61 -15q27 -10 35 -37q14 -27 15 -82v-1019q0 -66 -25 -95q-29 -29 -53 -30 l-49 -7q-8 0 -17 -2h-26h-29v-69z" />
<glyph unicode="O" horiz-adv-x="1609" d="M47 705q0 -86 12 -160q16 -80 39 -144q53 -133 152 -231q94 -94 229 -147q133 -49 301 -50q217 0 398 105q182 102 282 282q102 180 103 398q0 156 -52 278q-53 129 -147 217q-98 90 -234 136q-141 47 -303 47q-174 0 -321 -52q-80 -29 -135 -63q-31 -16 -60 -39 q-20 -16 -53 -45q-102 -96 -158 -231q-53 -137 -53 -301zM250 786q0 162 65 295q63 127 187 199q119 70 286 70q125 0 230 -45q104 -45 180 -134q74 -86 115 -208q39 -117 39 -265q0 -195 -62 -340q-59 -145 -176 -223q-115 -76 -274 -76q-131 0 -240 52q-113 49 -188 147 q-80 96 -121 229q-41 135 -41 299z" />
<glyph unicode="P" horiz-adv-x="1236" d="M51 -8l148 4l145 4l148 -4l145 -4v69l-66 5l-47 2q-20 4 -32 8q-23 8 -39 37q-14 27 -15 82v804l2 140l4 168q78 25 113 28q29 6 39 6q6 2 22 2h31q172 0 260 -75q92 -76 92 -215q0 -74 -22 -138q-20 -59 -61 -100q-37 -37 -99 -59q-55 -20 -133 -21q-41 0 -131 23 l18 -76q84 -18 170 -18q123 0 230 61q113 63 174 162q66 100 65 203q0 166 -116 247q-119 84 -340 84l-172 -4l-138 -6q-10 0 -18 -2h-16h-21h-47l-207 6l-86 2v-69l88 -2q12 0 33 -5q6 -2 18 -4q8 -4 11 -4q23 -8 37 -37q12 -27 12 -82v-1019q0 -66 -25 -95 q-29 -29 -53 -30l-49 -7q-8 0 -17 -2h-26h-29v-69z" />
<glyph unicode="Q" horiz-adv-x="1609" d="M47 707q0 -166 51 -301q53 -137 148 -234q92 -92 229 -145q135 -51 297 -52q-68 -35 -110 -63l-134 -90v-66l54 33q23 14 30 18q6 4 25 13l6 2q18 8 33 8l24 2q63 0 134 -20l84 -27l104 -37q133 -45 201 -65q86 -29 168 -37q41 33 67 55q35 20 98 55v51q-49 -14 -65 -16 q-33 -4 -49 -4q-29 0 -41 2q-10 2 -21 2q-16 2 -20 2t-14 4q-49 10 -74 19q-51 14 -107 37q-63 20 -129 49q-41 14 -73 28q-37 14 -50 19q-16 4 -30 10l-56 16q162 14 297 80q129 61 236 168q98 104 149 238q29 68 41 143q8 53 11 78q2 27 2 76q0 156 -52 278 q-53 129 -147 217q-98 90 -234 136q-141 47 -303 47q-88 0 -165 -13q-90 -18 -154 -41q-154 -53 -252 -145t-156 -229q-53 -137 -53 -301zM258 788q0 127 39 232q37 104 104 178q66 72 166 113q98 39 226 39q63 0 120 -13q49 -10 109 -34q109 -45 178 -129q72 -80 113 -205 q39 -117 39 -269q0 -193 -62 -340q-59 -145 -176 -223q-113 -74 -270 -74q-133 0 -240 52q-109 51 -186 147q-80 100 -119 227q-41 135 -41 299z" />
<glyph unicode="R" horiz-adv-x="1368" d="M53 -8l148 4l145 4l148 -4l145 -4v69l-66 5l-47 2q-20 4 -32 8q-23 8 -39 37q-14 27 -15 82v774q4 43 6 98q2 37 3 125q0 29 2 59q2 29 2 58q109 39 209 39q37 0 51 -2q10 -2 20 -3q10 -2 21 -4q49 -10 75 -22q74 -37 109 -96q37 -61 37 -142q0 -98 -43 -172 q-47 -74 -125 -110q-78 -39 -197 -39l-78 4l-10 -33q111 -117 207 -258l342 -479l141 8q41 -6 66 -6q8 0 18 -2h25h33v69q-66 10 -101 29q-39 25 -61 53l-72 101l-332 471q193 43 295 145t103 256q0 178 -129 242q-68 33 -150 47q-78 14 -180 14l-115 -2l-129 -4l-137 -4 l-207 6l-86 2v-69l88 -2q12 0 33 -5q6 -2 19 -4q8 -4 10 -4q23 -8 37 -37q12 -27 12 -82v-1019q0 -66 -25 -95q-29 -29 -53 -30l-49 -7q-8 0 -16 -2h-27h-29v-69z" />
<glyph unicode="S" horiz-adv-x="1075" d="M27 997q0 -199 110 -270q104 -68 324 -90q213 -23 311 -62q100 -43 100 -198q0 -94 -49 -166q-47 -74 -139 -115q-47 -20 -96 -28q-47 -8 -113 -9q-96 0 -176 25q-78 25 -133 68q-27 25 -33 51q-6 25 -6 104v51h-70l-4 -174q0 -12 -4 -47v-6q-2 -10 -2 -25q-4 -29 -6 -55 l27 -10q27 -12 43 -16l14 -5q31 -10 49 -16l62 -14l24 -6l12 -2h27q43 -8 135 -9q129 0 246 35q113 37 197 107q84 72 127 159q43 92 43 203q0 72 -35 144q-35 70 -88 102q-70 45 -199 57l-254 29q-129 18 -199 76q-71 54 -71 182q0 86 47 152t123 98q74 33 186 33 q303 0 303 -197v-80h70l4 96l4 62q3 51 23 119q-199 86 -386 86q-72 0 -122 -9q-70 -10 -107 -22q-100 -31 -172 -86q-74 -59 -111 -137q-36 -80 -36 -180v-5z" />
<glyph unicode="T" horiz-adv-x="1255" d="M35 1417q12 -141 12 -209l-2 -118h64l6 69l8 68l8 53l2 2q8 23 14 27q12 8 25 10q12 2 49 2q33 0 55 2h52h53q23 2 47 2h100l2 -94l5 -121v-94v-821q0 -66 -23 -95q-25 -25 -43 -28q-6 -2 -16 -2q-10 -2 -17 -4q-12 -2 -30 -3q-10 0 -19 -2h-20h-31v-69l147 4l146 4 l147 -4l146 -4v69l-103 5q-51 6 -74 28q-22 28 -22 95v6v821l4 172l4 137l242 -4l100 -2q35 0 49 -33l6 -12q4 -6 5 -6q2 -2 2 -11q2 -6 2 -10q6 -14 6 -43l8 -114h61l-2 61v57q2 6 2 25q0 10 2 24q4 37 5 60q2 10 2 22t2 23v43v12l-54 -2l-243 -4l-148 -2h-149h-64h-106 l-125 2l-246 4z" />
<glyph unicode="U" horiz-adv-x="1593" d="M33 1348l90 -2l27 -5l28 -8q27 -8 39 -37q14 -27 14 -82v-516v-159v-39q2 -18 2 -41v-88l5 -52l6 -43l12 -36l14 -37q45 -104 187 -168q139 -61 336 -62q147 0 266 41q115 41 188 123q12 14 33 39q16 23 25 37q25 45 32 90q10 41 13 62q2 6 2 20q2 12 2 18v29l2 76l2 129 v577q0 55 10 82q8 25 33 35q23 10 37 12l39 3l79 2v69l-243 -8l-125 4l-121 4v-69l94 -2q14 0 31 -5l33 -10q18 -8 30 -37q10 -31 11 -80v-575q0 -168 -17 -262q-16 -90 -51 -141q-47 -66 -145 -99q-100 -37 -222 -37q-121 0 -217 37q-92 33 -139 99q-23 29 -35 71l-2 10 q-10 29 -12 39l-2 56l-2 98l-2 88v616q0 63 14 91q20 29 45 34q29 6 96 7l43 2v69l-145 -4l-86 -2l-61 -2l-146 4l-86 2l-61 2v-69z" />
<glyph unicode="V" horiz-adv-x="1478" d="M25 1348q53 0 94 -11q35 -8 51 -32q18 -27 33 -68l39 -113l358 -897q12 -23 39 -98q33 -90 53 -152h103q31 102 135 371l336 823l37 97q16 41 45 55q20 14 45 20q33 4 61 5v69l-223 -8l-113 4l-110 4v-69l86 -2q55 0 75 -13q23 -12 23 -37q0 -29 -31 -118 q-33 -92 -104 -277l-262 -657l-271 688l-84 223l-24 55l-10 27l-11 23l-6 24v23q0 25 14 30q14 8 33 9h31h102v71l-147 -4l-125 -4l-90 2l-90 4h-47l-45 2v-69z" />
<glyph unicode="W" horiz-adv-x="2048" d="M20 1348l91 -7q37 -10 47 -28q14 -18 32 -111l175 -747l51 -232l22 -102l31 -144h100l39 119l41 115l39 106l64 164l67 162l187 453l163 -451l109 -299l41 -106l33 -93l28 -88l23 -82h104l217 758l58 209q6 18 49 160q16 59 24 80q39 115 62 143q23 18 53 19l58 2v69 l-218 -8l-96 6q-45 0 -63 2h-58v-69l90 -2q88 0 89 -41l-5 -37l-32 -127l-29 -119l-29 -107l-184 -632l-240 678l-71 204l-88 265h-64l-67 -181l-66 -178l-80 -201l-233 -573l-142 635l-39 180q-34 159 -34 187q0 17 10 28q10 10 31 12q29 6 59 7q6 2 33 2h39v69l-140 -4 l-120 -4l-70 2l-39 2h-33l-35 2h-28l-56 2v-69z" />
<glyph unicode="X" horiz-adv-x="1366" d="M33 -8l106 8q31 -6 51 -6q4 0 11 -2h22h25l51 92l84 133l117 184l78 115l79 109l375 -633l152 8l65 -6q10 0 21 -2h26h37v69h-45q-33 0 -51 13q-18 8 -45 41l-49 73l-43 70l-326 528l70 101l88 117l98 129l80 100l37 49q18 29 37 43q14 14 47 21q23 8 78 8v61h-209 l-373 -549l-170 287q-78 133 -119 188q-33 43 -86 89l-295 -48v-61l29 4h35q84 0 160 -104q90 -127 174 -265l149 -249l-239 -334l-142 -193l-63 -86q-12 -16 -39 -24q-25 -8 -88 -9v-69z" />
<glyph unicode="Y" horiz-adv-x="1366" d="M14 1321q72 0 103 -14q33 -14 76 -64q115 -123 210 -282q98 -162 209 -379v-387q0 -66 -24 -95q-29 -29 -47 -30l-56 -7q-12 0 -20 -2h-23h-28v-69l147 4l146 4l147 -4l145 -4v69l-90 5q-25 0 -35 2l-22 6q-20 10 -37 37q-14 27 -14 84v350q0 78 98 246q106 178 229 350 q125 178 191 250v24h-154l-229 -397l-70 -121l-65 -111l-58 -90l-94 174l-82 154l-75 137q-113 199 -175 238q-6 10 -63 31q-160 -29 -240 -48v-61z" />
<glyph unicode="Z" horiz-adv-x="1366" d="M45 -6l70 4l102 2h246l211 -2l131 -4h78l209 -4l180 4l2 84l6 102l4 90l8 82h-73l-15 -137q-8 -68 -26 -88t-68 -31h-6q-23 -4 -31 -4q-10 -2 -29 -2q-12 0 -22 -2h-29h-41l-202 -2h-435l498 659l166 220l145 192l86 109q39 47 82 90v61q-119 -10 -200 -10l-261 2l-260 6 l-260 4l-137 -2l2 -51l6 -72l-6 -80q-2 -12 -2 -18l-2 -6v-14v-21l2 -31v-41h66l6 62l6 84q6 47 18 61q16 16 37 19q6 0 17 2q33 4 49 6l18 2q33 2 43 2l109 2l102 2l123 2l113 -4l133 -2l-94 -127l-80 -111l-88 -116l-453 -600q-160 -209 -254 -316v-57z" />
<glyph unicode="[" horiz-adv-x="681" d="M203 -430h432v59h-14l-119 2h-25q-8 0 -31 7q-20 6 -30 12q-23 14 -33 59t-10 125v1383v69l2 43l8 35q8 25 33 39q29 12 55 14q8 2 18 2t19 2h35l78 2h14v60h-432v-1913z" />
<glyph unicode="\" horiz-adv-x="942" d="M186 1448l432 -1479h138l-432 1479h-138z" />
<glyph unicode="]" horiz-adv-x="681" d="M47 -371v-59h432v1913h-432v-60h14q8 0 17 -2h24h27l74 -2q12 0 37 -4q20 -8 28 -12q23 -14 33 -53q8 -33 8 -133v-1383q0 -82 -10 -127q-8 -45 -31 -57q-27 -18 -86 -19l-121 -2h-14z" />
<glyph unicode="^" horiz-adv-x="1241" d="M104 666h119l398 694l395 -694h119l-457 831h-115z" />
<glyph unicode="_" d="M0 -172v-102h1024v102h-1024z" />
<glyph unicode="`" horiz-adv-x="681" d="M88 1313q0 -23 23 -49q27 -25 92 -64l268 -162h68l-295 283q-31 35 -51 43q-16 10 -39 10q-29 0 -48 -18q-18 -20 -18 -43z" />
<glyph unicode="a" d="M68 209q0 -43 8 -70q10 -37 22 -57q33 -53 92 -82q55 -27 140 -27q57 0 102 19q23 10 49 24q29 16 49 31q45 31 140 123q-1 -72 -11 -178l43 6l56 2l125 -4l123 -4v69h-13q-57 0 -98 11q-35 10 -45 34q-6 10 -10 35q-2 12 -2 52v192l-2 207q0 76 -7 115q-6 41 -12 61 q-8 29 -12 39q-31 68 -107 106q-90 47 -198 48h-19q-6 0 -24 -3q-18 -2 -19 -2l-57 -14q-70 -23 -107 -43l-131 -74v-137l56 -14l16 43l16 43l21 49q39 27 78 39q41 10 86 10q254 0 254 -270l-195 -33q-74 -14 -119 -27l-8 -2q-59 -16 -84 -26q-84 -35 -139 -105 q-57 -70 -57 -186zM242 252q0 80 43 129q47 49 104 76q29 12 70 26q10 2 18 4q37 8 55 13l138 30v-272q-55 -74 -131 -123q-70 -43 -144 -43q-72 0 -110 45q-43 47 -43 115z" />
<glyph unicode="b" horiz-adv-x="1132" d="M18 1352h41q47 0 82 -11q25 -8 35 -36q10 -31 10 -84v-895l-4 -189l-4 -57l-12 -80l35 -12l37 35l43 38q63 -41 129 -65q61 -23 133 -23l39 2l36 9q31 6 74 26l35 21q29 16 41 24l59 41q96 72 113 88q63 57 104 164q39 102 39 217t-49 203q-49 90 -131 141t-182 52 q-27 0 -64 -5q-27 -2 -55 -12q-51 -16 -86 -41q-37 -25 -78 -65l-84 -86l-2 430l8 147l13 125v4q0 31 -21 31l-26 -4l-41 -17q-72 -29 -267 -55v-61zM352 250v69v228l2 59l4 39q4 25 19 45q82 143 252 144q29 0 43 -3q8 0 24 -6q10 -2 13 -2q39 -12 67 -32q68 -49 101 -125 q32 -78 32 -183v-6q0 -117 -39 -207q-41 -92 -108 -143q-70 -51 -160 -51q-96 0 -174 53q-76 49 -76 121z" />
<glyph unicode="c" horiz-adv-x="909" d="M45 451q0 -150 57 -256q55 -111 160 -166q104 -55 250 -56q72 0 141 17q61 14 144 57l41 64l-29 24q-115 -59 -221 -59q-80 0 -154 35q-72 35 -117 94q-47 59 -71 143q-27 80 -27 191q0 104 35 176t96 106q66 37 156 37q123 0 180 -43q61 -43 62 -127v-49h61l2 63l4 60 l23 141q-61 33 -119 45q-25 6 -29 6q-2 0 -14 2q-2 0 -21 2l-69 3q-84 0 -140 -21q-70 -25 -180 -88q-117 -68 -170 -170q-51 -96 -51 -231z" />
<glyph unicode="d" horiz-adv-x="1251" d="M90 449q0 -145 51 -252q53 -113 146 -166q90 -57 213 -58q45 0 137 29l51 47l60 53l55 48l51 36v-4l-2 -96l-8 -94l45 6l53 2l125 -4l123 -4v69h-12q-59 0 -97 11q-37 8 -49 34q-4 10 -8 35q-2 12 -2 52v989l8 159l10 113v4q0 31 -20 31l-35 -6l-33 -15q-70 -27 -266 -55 v-61h41q47 0 82 -11q29 -8 37 -36q8 -25 8 -84v-322q-125 61 -231 62q-70 0 -166 -37q-100 -41 -183 -99q-84 -61 -116 -114q-68 -113 -68 -262zM264 506q0 109 35 196q35 84 102 127q66 45 158 45q160 0 295 -147v-246q0 -102 -8 -145q-8 -51 -31 -94q-29 -61 -96 -103 q-63 -39 -137 -39q-143 0 -230 113q-88 113 -88 293z" />
<glyph unicode="e" horiz-adv-x="980" d="M57 449q0 -145 58 -252q59 -111 161 -166q100 -57 244 -58q170 0 340 97l17 41l16 43l-16 14q-131 -92 -273 -92q-111 0 -190 49q-82 47 -123 135q-25 51 -33 100q-10 58 -10 117h250l149 2l121 4l76 9l78 14v53q0 121 -45 211q-45 92 -134 143q-88 47 -198 48h-21 q-6 0 -24 -3q-18 -2 -19 -2l-67 -16q-82 -25 -133 -53q-61 -35 -103 -80q-53 -53 -88 -148q-33 -92 -33 -210zM250 553q0 63 8 106q12 57 23 84q31 72 88 111q59 35 145 35q133 0 178 -94q45 -92 45 -242q-43 -8 -145 -8l-184 4z" />
<glyph unicode="f" horiz-adv-x="681" d="M33 -8l252 8l129 -4l123 -4v69q-66 0 -101 7q-35 10 -51 34q-16 29 -16 91v593h65l78 2l113 -2l16 97l-8 10l-66 -6h-65l-133 -2v131q0 150 14 215q12 70 43 94q35 25 100 25q74 0 133 -52l25 11l-4 32v52l4 84q-49 12 -86 12q-41 0 -76 -12q-39 -16 -69 -43 q-37 -31 -107 -101q-88 -88 -115 -149q-30 -61 -30 -160v-6v-125l-33 -19l-37 -20l-35 -18l-39 -19v-41l27 4h35l82 6v-593q0 -59 -17 -89q-16 -29 -51 -34q-31 -8 -100 -9v-69z" />
<glyph unicode="g" horiz-adv-x="1138" d="M84 -270q0 -90 55 -160q51 -74 150 -111q57 -20 104 -28q49 -8 117 -9q160 0 289 58q135 59 207 162q72 102 71 221q0 131 -57 194t-172 64l-154 -4l-153 -4q-96 0 -150 18q-45 25 -45 66q0 27 21 49l30 30l49 39h25q2 -2 21 -2q84 0 165 29q78 29 138 78q53 43 90 115 q33 63 33 135q0 32 -23 104h184q23 43 54 90l-11 21q-51 -8 -202 -8h-84q-59 51 -117 69q-55 18 -135 19q-39 0 -60 -2q-8 0 -30 -5q-10 -2 -23 -4q-63 -14 -106 -32q-104 -45 -170 -129q-63 -82 -64 -203q0 -113 57 -176q59 -68 187 -99l-74 -47l-25 -18l-26 -25 q-31 -23 -45 -53q-16 -29 -17 -68q0 -39 25 -61q16 -12 37 -23q25 -8 67 -24q-68 -47 -176 -100q-37 -57 -47 -80q-10 -35 -10 -86zM242 -250q0 68 32 119q31 51 82 82q54 29 115 29h234q113 0 163 -43q51 -43 52 -142q0 -129 -107 -215q-106 -86 -264 -86q-141 0 -223 70 q-84 68 -84 186zM305 657q0 72 27 125q25 57 74 84q47 27 112 27q66 0 119 -35q53 -37 80 -98q26 -62 26 -144q0 -78 -26 -129q-29 -57 -74 -84q-45 -28 -110 -28h-5q-66 0 -118 35q-51 39 -78 102q-27 61 -27 145z" />
<glyph unicode="h" horiz-adv-x="1191" d="M27 -8l252 8l127 -4l124 -4v69q-66 0 -100 7q-35 10 -49 34q-18 29 -19 91v335q0 125 15 162q16 43 53 74q39 33 90 51q53 18 107 19q72 0 123 -27t71 -72q20 -35 27 -84q6 -49 6 -182v-283l-2 -96l-8 -98l45 6l53 2l125 -4l123 -4v69h-12q-59 0 -97 11q-37 8 -49 34 q-4 10 -8 35q-2 12 -2 52v321l-2 139l-8 88q-12 66 -43 109q-33 47 -113 80q-76 31 -164 31q-27 0 -59 -5q-27 -2 -49 -12q-47 -16 -90 -59l-25 -23l-8 -8l-99 -84v412q0 84 11 202l2 15q2 10 2 14q2 4 2 21q2 14 2 20v4q0 31 -21 31l-26 -4l-41 -17q-70 -27 -266 -55v-61 h41q51 0 82 -11q29 -8 36 -36q8 -25 9 -84v-1028q0 -59 -17 -89q-16 -29 -49 -34q-31 -8 -102 -9v-69z" />
<glyph unicode="i" horiz-adv-x="595" d="M51 -8l256 8l125 -4l123 -4v69q-66 0 -100 7q-35 10 -49 34q-18 29 -19 91v452l4 123l15 150v4q0 31 -21 30l-18 -4l-29 -10l-21 -6q-55 -20 -100 -29q-41 -10 -166 -26v-62h41q61 0 84 -8q27 -10 35 -37q8 -25 8 -86v-491q0 -59 -16 -89q-18 -29 -51 -34q-31 -8 -101 -9 v-69zM186 1294q0 -49 33 -82q36 -32 77 -32h3q12 0 29 4q10 2 26 12q29 16 43 43t15 55l-4 29l-13 27q-14 29 -43 43q-26 14 -53 14q-45 0 -80 -35q-33 -33 -33 -78z" />
<glyph unicode="j" horiz-adv-x="479" d="M-86 -506l20 -69l31 -3q72 0 150 48q74 47 118 120q57 90 76 197q18 100 19 322l-2 231v305l4 111l14 162v4q0 31 -20 30q-14 -2 -33 -8l-33 -14q-59 -25 -268 -53v-62h41q61 0 84 -8q27 -10 35 -37q8 -25 8 -86v-786q0 -59 -6 -111l-17 -100q-25 -100 -63 -148 q-39 -51 -90 -51l-29 2zM123 1292q0 -43 35 -78q34 -34 78 -34h2q43 0 77 34q35 35 35 78q0 49 -33 82q-32 33 -79 33t-80 -33q-35 -35 -35 -82z" />
<glyph unicode="k" horiz-adv-x="1138" d="M45 -8l252 8l129 -4l123 -4v69l-57 2l-41 5q-33 8 -52 36q-18 31 -18 89v303h12q61 -55 131 -125l129 -129l148 -144q90 -88 133 -121l102 27l88 37v45q-51 10 -61 16q-23 14 -68 54l-198 182l-176 174l-62 66l98 84l68 55l63 49q55 45 119 82q68 35 101 35h36v57h-200 l-62 -53l-168 -162l-57 -51l-35 -31l-129 -98l-12 6v631l6 98l8 111l4 69q0 29 -20 29q-18 0 -68 -21q-84 -29 -266 -55v-59h41q47 0 82 -11q29 -12 37 -38q8 -25 8 -84v-1028q0 -84 -35 -107q-37 -25 -133 -25v-69z" />
<glyph unicode="l" horiz-adv-x="595" d="M45 -8l252 8l129 -4l123 -4v69q-70 0 -100 7q-35 10 -52 34q-16 29 -16 91v989l8 159l10 113v4q0 31 -20 31l-35 -6l-33 -15q-70 -27 -266 -55v-61h41q47 0 82 -11q29 -8 37 -36q8 -25 8 -84v-1028q0 -59 -16 -89q-18 -29 -52 -34q-31 -8 -100 -9v-69z" />
<glyph unicode="m" horiz-adv-x="1808" d="M47 -8l252 8l127 -4l125 -4v69q-66 0 -100 7q-35 10 -50 34q-18 29 -18 91v235q0 201 10 248q18 72 84 119q66 45 154 45q53 0 98 -25q49 -29 70 -67q12 -18 20 -46q10 -20 12 -55q8 -55 9 -207v-247q0 -59 -17 -89q-18 -27 -49 -36q-33 -6 -102 -7v-69l252 8l129 -4 l123 -4v69h-13q-57 0 -98 11q-35 10 -45 34q-6 10 -10 35q-2 12 -2 52v249l2 140l8 88q18 74 82 118q66 43 153 43q61 0 109 -32q51 -35 72 -82q14 -25 20 -55q8 -25 8 -56v-180v-240l-4 -96l-6 -98l45 6l53 2l125 -4l123 -4v69h-12q-59 0 -96 11q-37 10 -50 34q-4 10 -8 35 q-2 12 -2 52v417l-4 115q-2 41 -18 68q-25 43 -41 61q-43 49 -105 76q-57 26 -128 26h-5q-57 0 -100 -14q-49 -16 -80 -39q-45 -33 -72 -57l-80 -74q-57 106 -125 146q-64 38 -176 38h-6q-55 0 -92 -14t-70 -37q-31 -18 -73 -59l-68 -64l8 76l6 60v4q0 29 -20 28l-19 -4 l-28 -8l-21 -8q-66 -20 -100 -29q-51 -8 -166 -24v-62h41q61 0 84 -8q27 -10 35 -37q8 -25 8 -86v-491q0 -59 -16 -89q-18 -29 -52 -34q-31 -8 -100 -9v-69z" />
<glyph unicode="n" horiz-adv-x="1191" d="M29 -8l252 8l127 -4l124 -4v69q-66 0 -100 7q-35 10 -49 34q-18 29 -18 91v266q0 184 14 227q16 45 51 78q37 35 88 49q23 12 53 16q6 2 13 2q14 2 18 3h25q63 0 118 -27t82 -70q20 -29 27 -75q6 -39 6 -160v-316l-4 -96l-6 -98l45 6l53 2l125 -4l123 -4v69h-12 q-59 0 -97 11q-37 8 -49 34q-4 10 -8 35q-2 12 -2 52v385q0 113 -12 170q-12 59 -43 98q-35 41 -70 61q-47 31 -92 39q-29 10 -53 12q-18 2 -56 3q-63 0 -104 -15q-47 -16 -80 -41q-37 -25 -78 -65l-73 -70l16 148v4q0 31 -21 30l-20 -4l-27 -8l-20 -8q-49 -20 -100 -29 q-41 -10 -166 -26v-62h41q61 0 84 -8q27 -10 34 -37q8 -25 9 -86v-491q0 -59 -17 -89q-16 -29 -51 -34q-31 -8 -100 -9v-69z" />
<glyph unicode="o" horiz-adv-x="1118" d="M72 446q0 -143 59 -251q57 -106 162 -166q102 -55 242 -56q156 0 270 64q117 66 178 180q63 115 64 270q0 143 -58 250q-55 109 -160 166q-102 57 -245 58q-158 0 -271 -64q-117 -66 -178 -180q-63 -115 -63 -271zM260 530q0 66 8 107q10 51 25 88q31 80 96 123 q66 41 148 41q76 0 135 -35q63 -37 100 -96q43 -66 66 -150q20 -82 20 -205q0 -168 -74 -264q-74 -94 -202 -94q-100 0 -172 59q-74 59 -111 166q-12 33 -18 58q-6 29 -13 61q-8 57 -8 141z" />
<glyph unicode="p" horiz-adv-x="1230" d="M51 -483v-70l252 8l127 -6l125 -2v70l-59 2l-41 6q-31 6 -49 33t-19 90v379q63 -31 109 -43q45 -10 100 -11q66 0 125 27q47 23 115 63l118 82q63 39 107 105q43 61 67 145q25 84 25 172q0 78 -29 158q-29 78 -82 129q-51 51 -124 80q-72 27 -162 27q-59 0 -115 -17 q-51 -14 -88 -43q-14 -8 -39 -31l-4 -2q-10 -8 -37 -30q-6 -8 -16 -17l-68 -61q0 16 17 158v4q0 31 -21 30l-18 -4l-29 -10l-21 -6q-55 -20 -100 -29q-41 -10 -166 -26v-62h41q61 0 84 -8q27 -10 35 -37q8 -25 8 -86v-1036q0 -55 -12 -82q-14 -29 -43 -39q-35 -10 -101 -10 h-12zM387 209v313q0 78 10 135q14 51 60 93q96 84 223 84q133 0 215 -101q84 -102 84 -254q0 -111 -41 -209q-41 -92 -115 -143q-70 -51 -161 -51q-51 0 -105 12q-45 16 -86 43q-45 33 -84 78z" />
<glyph unicode="q" horiz-adv-x="1146" d="M59 434q0 -209 113 -334q115 -127 293 -127l45 2l47 9q117 74 236 145v-481q0 -61 -19 -88q-16 -29 -47 -35q-31 -8 -102 -8v-70l252 8l129 -6l122 -2v70h-12q-25 0 -57 4q-23 2 -41 6q-31 8 -45 39q-12 25 -12 82v964q0 45 2 88q2 45 2 99q4 29 6 67l2 19q6 35 8 53 l-35 12l-35 -30l-45 -43q-96 84 -256 84q-43 0 -98 -11q-10 -4 -29 -8q-14 -4 -18 -6q-29 -8 -39 -14q-27 -12 -78 -39l-6 -4l-88 -52q-92 -49 -145 -151q-25 -51 -37 -113q-12 -57 -13 -129zM233 508q0 164 84 266q82 100 224 100q74 0 131 -24q59 -29 112 -76l4 -147 q0 -76 3 -111q2 -33 2 -92v-191q-70 -80 -125 -108q-57 -33 -131 -33q-90 0 -162 53q-68 51 -107 146q-35 94 -35 217z" />
<glyph unicode="r" horiz-adv-x="808" d="M49 -8l252 8l127 -4l125 -4v69q-66 0 -100 7q-35 10 -50 34q-18 29 -18 91v337q0 117 51 187q50 69 135 69h2q90 0 134 -94h45q0 145 14 217l4 21q0 12 -29 22q-25 8 -69 9q-59 0 -107 -31q-53 -39 -106 -107l-72 -82l2 62l6 51q6 23 6 31q2 8 2 18v15v4q0 31 -20 30 l-18 -4l-29 -10l-21 -6q-55 -20 -100 -29q-41 -10 -166 -26v-62h41q61 0 84 -8q27 -10 35 -37q8 -25 8 -86v-491q0 -59 -16 -89q-18 -29 -51 -34q-31 -8 -101 -9v-69z" />
<glyph unicode="s" horiz-adv-x="868" d="M72 33q0 -27 127 -43q23 -4 57 -8h8q6 0 10 -2q25 -2 35 -3q6 -2 23 -2q8 0 20 -2h31q176 0 297 95q119 94 119 233q0 125 -74 174q-76 51 -223 80q-150 29 -211 57q-66 31 -66 117q0 43 25 82q27 35 74 57q43 20 102 21q115 0 174 -53t59 -160h60q0 115 12 227 q-135 57 -272 58q-115 0 -203 -35q-82 -37 -129 -103q-45 -63 -45 -153q0 -127 76 -178q72 -51 223 -82q150 -35 211 -64q63 -31 63 -117q0 -78 -67 -131q-70 -53 -170 -53q-104 0 -180 39q-82 43 -82 92l-4 123h-62l-4 -131l-8 -78z" />
<glyph unicode="t" horiz-adv-x="667" d="M43 764l76 4l82 2v-379v-104v-43l-2 -47q0 -117 57 -168q55 -55 164 -56q53 0 121 23l45 53l51 62l-29 36q-29 -27 -53 -36q-27 -10 -51 -11q-29 0 -51 6q-23 6 -37 17q-27 23 -37 80q-10 61 -10 184v393l39 -2h55l49 2h125l12 103l-147 -4l-70 -2l-63 -3l8 201l4 90 l6 80l-27 19q-63 -33 -165 -78l4 -158l2 -154q-61 -33 -158 -67v-43z" />
<glyph unicode="u" horiz-adv-x="1234" d="M35 815h41q61 0 84 -8q27 -10 35 -37q8 -25 8 -86v-397l4 -78l6 -57q12 -47 45 -86q78 -92 223 -93q121 0 201 50q70 43 168 149q0 -8 -6 -104q-4 -53 -4 -76l43 6l55 2l125 -4l123 -4v69h-12q-39 0 -58 2q-12 2 -33 7q-2 0 -10 2q-33 8 -45 34q-4 10 -8 35q-2 12 -2 52 v452l4 111l14 162v4q0 30 -19 30h-1l-19 -4l-28 -10l-21 -6q-55 -20 -100 -29q-41 -10 -166 -26v-62h41q61 0 84 -8q27 -10 35 -37q8 -25 8 -86v-305l-2 -49l-8 -51q-25 -70 -109 -129q-82 -57 -164 -58q-94 0 -145 58q-51 55 -51 155v340l4 111l14 162v4q0 30 -19 30h-1 l-19 -4l-28 -10l-21 -6q-49 -20 -100 -29q-41 -10 -166 -26v-62z" />
<glyph unicode="v" horiz-adv-x="1157" d="M20 870q70 0 101 -18q29 -23 55 -90l82 -189l100 -237l103 -240l45 -112h102q80 201 127 309q57 131 139 301l103 213q18 39 39 51q16 12 55 12h37v70l-193 -8l-84 6q-39 0 -57 2h-51v-70h65q43 0 64 -10q16 -10 16 -31q0 -18 -2 -26t-6 -29l-24 -78q-31 -88 -68 -178 l-96 -211q-55 -121 -64 -143l-37 90l-51 127l-78 192q-92 219 -92 254q0 27 21 33l37 6l38 4h50v70l-238 -8l-123 6l-115 2v-70z" />
<glyph unicode="w" horiz-adv-x="1708" d="M18 870h56q47 0 67 -26q27 -29 41 -80l49 -152l80 -262l109 -366h102l51 145l78 178l92 207l82 174l54 -156l63 -163l86 -209l70 -176h96q133 412 311 784q31 63 51 82q18 14 25 16q16 4 31 4h49v70l-201 -8q-51 6 -92 6q-39 0 -57 2h-51v-70h63q41 0 66 -10 q18 -8 18 -37q0 -59 -102 -329l-72 -193l-39 -100l-76 190l-86 215l-76 193l-57 157h-49l-88 -198l-70 -158l-67 -156l-103 -227l-55 172l-10 33q-53 168 -72 240q-33 123 -33 163q0 45 105 45h51v70l-246 -8l-127 6l-117 2v-70z" />
<glyph unicode="x" horiz-adv-x="1056" d="M51 -8l41 4l47 4l47 -4l39 -4l97 151l61 86q33 43 115 146q4 -4 16 -25q27 -41 45 -71l82 -127q20 -35 39 -56q12 -18 41 -51q39 -45 84 -78q10 4 22 6q20 6 29 11q29 6 49 12l101 24v58q-37 0 -74 18q-39 23 -62 45q-25 25 -63 80l-45 64q-88 117 -158 227l74 92 l176 207q33 39 57 53q25 12 66 13v63l-41 -4l-35 -4l-37 4l-41 4q-115 -178 -264 -371l-106 168q-10 14 -33 49q-29 45 -45 66q-27 37 -64 66q-29 23 -69 36l-191 -92v-53l23 2h18q55 0 107 -39q51 -39 96 -96q47 -59 82 -121l76 -117l-66 -82l-143 -168l-35 -41 q-6 -6 -12 -14q-31 -33 -37 -39q-27 -18 -49 -26q-25 -8 -60 -9v-67z" />
<glyph unicode="y" horiz-adv-x="1138" d="M12 870h39q49 0 86 -49q35 -45 94 -207q45 -106 136 -323q53 -133 135 -348l-47 -125l-27 -66l-29 -57q-35 -66 -75 -105q-47 -41 -93 -41q-29 0 -55 17q-31 18 -53 47h-23l-49 -156q43 -23 66 -28q23 -6 59 -7q92 0 158 54q63 51 117 174l127 289l129 307l41 96l45 102 l51 111l102 221l12 33q14 25 23 33q14 14 43 20q6 2 14 4q8 0 15 2q10 2 45 2v70l-193 -8l-84 6q-39 0 -57 2h-51v-70h73q68 0 68 -41q0 -55 -88 -264q-111 -262 -170 -391l-117 275q-61 141 -106 278l-19 45q-16 43 -16 59t16 27q10 6 31 10q6 2 27 2h73v70l-235 -8l-123 6 l-115 2v-70z" />
<glyph unicode="z" d="M43 41l10 -47l187 6h204l172 -2l170 -2l80 2l78 6q0 33 2 64l2 18q2 37 2 49l17 156h-60l-10 -70l-16 -74q-16 -39 -27 -47q-18 -10 -51 -16q-37 -6 -98 -6l-173 -6q-27 0 -51 -2h-55l-29 2h-22h-76l82 104l102 139l133 170l138 172l131 162l59 68v53l-55 -2h-47l-97 -2 l-143 -2l-137 2l-176 2l-137 2l-9 -8v-45l2 -51l-4 -78l-6 -88h58l6 63q6 57 22 90q16 31 49 31q133 12 439 12l-174 -227l-164 -211q-27 -35 -47 -59q-14 -16 -43 -54l-78 -92q-70 -88 -160 -182z" />
<glyph unicode="{" horiz-adv-x="681" d="M86 522q74 -20 115 -49q39 -27 55 -72t16 -118l2 -412q0 -104 27 -166q29 -66 74 -92q31 -16 51 -25q20 -6 61 -14l78 -8q45 -4 78 -4h12q-84 18 -129 51q-47 35 -67 84q-23 51 -23 129v422q0 59 -10 110q-4 12 -10 31l-4 12q-8 18 -19 31q-40 59 -153 90q84 25 122 56 q41 31 56 75l4 11q2 6 4 10q0 2 2 12q0 4 2 19q4 29 4 43q2 12 2 36v441q0 94 27 141q23 47 72 76q51 29 127 47l-84 -4l-91 -10q-55 -8 -104 -37q-47 -27 -80 -82q-29 -61 -29 -156v-438q0 -45 -10 -90q-8 -39 -31 -68q-39 -47 -147 -82z" />
<glyph unicode="|" horiz-adv-x="466" d="M164 -512h139v2048h-139v-2048z" />
<glyph unicode="}" horiz-adv-x="681" d="M20 -438l76 4l84 8q63 12 119 41q57 29 82 84q27 55 27 151v439l4 63q4 10 6 25l4 10l4 16q14 45 57 74q39 29 113 51q-76 20 -113 47q-43 29 -57 74q-16 49 -16 121l-2 410q0 113 -27 174q-27 66 -80 92q-51 27 -102 33q-27 4 -41 6q-12 2 -35 2l-96 2q115 -25 168 -86 q51 -59 51 -176v-424q0 -39 6 -74q2 -31 6 -41q4 -12 6 -22q18 -51 62 -82q40 -33 116 -56q-88 -29 -123 -57q-39 -27 -55 -74q-10 -23 -12 -47q0 -6 -2 -10q-2 -25 -2 -35q-2 -12 -2 -39v-438q0 -123 -51 -174q-51 -55 -175 -92z" />
<glyph unicode="~" horiz-adv-x="1241" d="M92 621l74 -86q49 82 80 120q35 43 67 62q35 18 76 18q59 0 113 -20l57 -25l70 -35l65 -32l60 -23q55 -18 106 -18q80 0 150 55q68 53 139 172l-74 84q-100 -184 -221 -184q-37 0 -86 16l-55 25l-72 32q-12 6 -25 13q-12 6 -18 8q-14 8 -33 12l-8 4q-16 8 -25 10l-30 13 q-59 20 -113 20q-43 0 -84 -12q-41 -16 -67 -41q-68 -55 -146 -188z" />
<glyph unicode="&#xa1;" horiz-adv-x="495" d="M119 899q0 -57 37 -94q33 -39 92 -39q57 0 94 41q35 41 35 92q0 55 -35 92q-37 37 -94 37q-61 0 -94 -37q-35 -41 -35 -92zM131 -348q0 -53 27 -74q27 -22 90 -22t90 22q25 27 24 74l-2 41l-81 882h-60l-86 -882q-2 -6 -2 -41z" />
<glyph unicode="&#xa2;" horiz-adv-x="1085" d="M76 709q0 -258 121 -396q121 -135 338 -135v-198h81v198q63 0 121 19q57 14 107 49q104 63 153 194l-53 33q-63 -113 -141 -154q-74 -39 -187 -38v874q27 -2 66 -16q33 -12 66 -52q35 -33 67 -110q25 -49 62 -49q25 0 51 12q25 8 41 33q14 20 14 51q0 25 -20 63 q-23 41 -58 66q-39 29 -112 51q-78 23 -177 23v155h-81v-155q-29 0 -46 -2q-8 0 -24 -4q-12 -2 -21 -4q-25 -6 -75 -23l-13 -4q-88 -33 -147 -96q-63 -61 -96 -158q-37 -94 -37 -227zM276 729q0 51 5 121q6 43 16 92q23 86 57 125q47 47 88 68q41 20 93 20v-868 q-258 55 -259 442z" />
<glyph unicode="&#xa3;" d="M27 25q2 -4 2 -25v-29h53l90 97l236 -37q106 -18 251 -39q51 -8 91 -12q27 -2 75 -3l86 5l60 32l6 174l8 140h-61l-6 -43l-5 -43q-2 -25 -10 -54q-6 -25 -20 -34q-14 -12 -49 -13l-107 4l-100 5l-97 2l-124 6l-101 -4l-100 -9q76 117 102 168q41 76 62 150q20 66 32 190 l369 -4l16 86l-8 8l-106 -6h-56h-210q0 117 10 230q8 88 26 170q20 90 88 145q66 51 162 51q123 0 168 -55q25 -31 37 -78q14 -41 14 -104h62l8 164l14 116q-51 37 -94 47q-45 12 -125 13q-113 0 -207 -52q-98 -53 -204 -137q-33 -31 -64 -67q-23 -31 -43 -82 q-16 -53 -22 -111q-8 -51 -9 -139l4 -113l-192 4l-10 -80l10 -10q59 6 113 6h43l22 -2h14v-43q-2 -6 -2 -28q0 -39 -2 -76q0 -18 -2 -33q-2 -41 -2 -51q-6 -66 -12 -107q-12 -45 -29 -77q-4 -6 -8 -17q-4 -10 -8 -16q-10 -18 -10 -21q-14 -25 -23 -39q-51 -27 -104 -67v-29 q-2 -4 -2 -24z" />
<glyph unicode="&#xa4;" horiz-adv-x="1085" d="M51 264q0 -29 35 -57q27 -23 53 -23q33 0 74 54l55 79q100 -94 275 -94q174 0 274 94l55 -79q41 -53 74 -54q27 0 53 23q35 29 35 57q0 37 -51 76l-80 61q94 119 94 283t-94 283l80 61q51 39 51 76q0 29 -35 57q-27 23 -53 23q-33 0 -74 -54l-55 -79q-51 51 -125 73 q-67 21 -149 21q-72 0 -150 -25q-72 -20 -125 -69l-55 79q-43 53 -74 54q-27 0 -53 -23q-35 -29 -35 -57q0 -37 51 -76l80 -61q-33 -45 -47 -70q-18 -39 -26 -66q-20 -59 -21 -147q0 -84 21 -147q10 -33 30 -68q18 -37 43 -68l-80 -61q-51 -43 -51 -76zM236 684q0 72 24 139 q23 63 66 115q39 45 96 74q53 24 121 24q66 0 127 -28q57 -29 96 -74t61 -109q12 -33 19 -67q4 -45 4 -74q0 -33 -2 -49q-2 -12 -4 -29q-4 -14 -4 -18q-8 -41 -29 -84q-41 -80 -113 -127q-66 -45 -155 -45q-84 0 -156 47q-74 47 -113 127q-39 78 -38 178z" />
<glyph unicode="&#xa5;" horiz-adv-x="1085" d="M-4 1309l53 -6q53 -6 88 -78l248 -512h-299v-78h328q20 -39 20 -115v-59h-348v-78h348v-205q0 -49 -10 -76q-10 -23 -45 -28q-6 -2 -14 -4q-10 -2 -17 -4q-4 0 -16 -3q-10 0 -19 -2q-14 -2 -61 -2h-12v-59h575v59l-76 7l-61 8q-37 10 -47 28q-10 25 -10 76v205h348v78 h-348v61q0 86 12 113h336v78h-307l145 311q66 129 98 184q35 53 51 68q25 18 62 24l57 9v59h-403v-59l112 -13q31 -6 31 -26l-10 -39q-55 -139 -109 -250l-121 -268l-251 536q-6 10 -7 23q0 27 31 28l96 9v59h-448v-59z" />
<glyph unicode="&#xa6;" horiz-adv-x="466" d="M164 -358h139v716h-139v-716zM164 666h139v716h-139v-716z" />
<glyph unicode="&#xa7;" horiz-adv-x="1134" d="M94 778q0 -133 76 -233q76 -106 272 -205q186 -96 246 -168q63 -76 64 -158q0 -76 -50 -125q-49 -49 -112 -49q-37 0 -78 13q-39 14 -74 43q-39 33 -69 92q-27 39 -56 39q-41 0 -67 -27q-29 -29 -29 -68q0 -43 43 -79q45 -39 117 -64t155 -25q113 0 197 48q82 49 125 125 q41 80 41 167q76 96 109 187q16 45 26 94q8 41 8 98q0 16 -4 49v5q-2 16 -6 45q-8 47 -31 86q-39 84 -116 147q-86 70 -203 131q-178 94 -223 156q-45 57 -45 119q0 63 45 108q45 47 116 47q51 0 97 -30q47 -27 86 -99q25 -33 55 -33q18 0 33 7q10 2 28 16q27 20 27 59 q0 63 -82 109q-82 43 -194 43q-31 0 -46 -2q-10 -2 -18 -2q-16 -2 -20 -2l-9 -2q-43 -12 -63 -21q-74 -29 -111 -71q-39 -45 -57 -95q-14 -35 -16 -49q-6 -18 -7 -28q-2 -8 -2 -25q-178 -172 -178 -373zM201 854q0 63 26 119q27 53 70 86q25 -61 70 -107q53 -47 106 -82 l96 -57l76 -43q129 -70 209 -172q80 -100 80 -213q0 -61 -19 -111q-16 -49 -49 -71q-37 78 -123 147q-81 68 -235 146q-160 86 -232 170q-76 90 -75 188z" />
<glyph unicode="&#xa8;" horiz-adv-x="819" d="M74 1284q0 -47 35 -82t88 -35q55 0 90 35q33 33 32 82q0 47 -34 82q-33 33 -88 33t-91 -35q-33 -35 -32 -80zM500 1284q0 -47 35 -82t88 -35q59 0 90 35q33 33 32 82q0 49 -30 82q-33 33 -92 33q-55 0 -91 -35q-33 -35 -32 -80z" />
<glyph unicode="&#xa9;" horiz-adv-x="1675" d="M92 709q0 -102 27 -191q25 -92 74 -178q100 -172 274 -272q172 -99 371 -99q147 0 288 62q137 57 240 155q102 102 160 238q57 133 57 285q0 145 -59 286q-57 139 -160 240q-100 96 -240 156q-135 57 -286 57q-201 0 -375 -100q-170 -100 -273 -271q-98 -168 -98 -368z M223 709q0 68 13 131q12 57 34 121q49 119 133 208q92 92 199 140q113 47 236 47q127 0 239 -49q115 -51 199 -138q88 -94 131 -206q45 -117 45 -254q0 -129 -47 -252q-45 -119 -133 -209q-84 -88 -197 -137q-111 -49 -237 -50q-127 0 -238 52q-119 51 -199 137 q-88 94 -133 209t-45 250zM449 713q0 -184 104 -295q100 -113 313 -113q94 0 170 19q78 18 111 45l22 204h-41q-31 -111 -88 -159q-57 -51 -153 -52q-100 0 -160 54q-61 53 -86 135q-14 37 -20 86q-6 43 -7 94q0 98 27 172t86 121q57 45 150 45q115 0 167 -53 q53 -55 68 -154h41v201q-45 31 -119 47q-78 16 -153 16q-143 0 -240 -51q-98 -55 -143 -145q-49 -94 -49 -217z" />
<glyph unicode="&#xaa;" horiz-adv-x="798" d="M82 727q0 -78 53 -131t148 -53l28 2l27 6q35 10 57 22l58 31l28 19q16 -43 35 -60q23 -18 59 -18l43 4l46 6q45 10 81 27l-6 36h-65q-51 14 -51 111v315q0 74 -45 119t-185 45q-68 0 -139 -22q-41 -14 -61 -27q-16 -8 -46 -29q-39 -35 -38 -71q0 -27 30 -45 q29 -20 60 -21q41 0 57 54q27 61 57 81q35 23 70 23q37 0 70 -29q29 -29 28 -80v-77l-133 -43l-104 -37q-94 -31 -127 -70q-35 -37 -35 -88zM244 741q0 49 26 76q27 31 82 49q68 29 129 43v-159q0 -66 -37 -101q-41 -35 -79 -35q-57 0 -89 37q-33 33 -32 90z" />
<glyph unicode="&#xab;" horiz-adv-x="905" d="M84 489q0 -16 10 -32l307 -373l41 33l-161 336q-8 14 -9 36q0 23 9 33l161 334l-41 35l-307 -371q-10 -14 -10 -31zM463 489q0 -16 10 -32l307 -373l41 33l-162 336q-8 14 -8 36q0 23 8 33l162 334l-41 35l-307 -371q-10 -14 -10 -31z" />
<glyph unicode="&#xac;" horiz-adv-x="1167" d="M88 678h852v-469h139v588h-991v-119z" />
<glyph unicode="&#xad;" horiz-adv-x="684" d="M41 403h549l55 158h-549z" />
<glyph unicode="&#xae;" horiz-adv-x="1675" d="M92 709q0 -102 27 -191q25 -92 74 -178q100 -172 274 -272q172 -99 371 -99q147 0 288 62q137 57 240 155q102 102 160 238q57 133 57 285q0 145 -59 286q-57 139 -160 240q-100 96 -240 156q-135 57 -286 57q-201 0 -375 -100q-170 -100 -273 -271q-98 -168 -98 -368z M223 709q0 68 13 131q12 57 34 121q49 119 133 208q92 92 199 140q113 47 236 47q127 0 239 -49q115 -51 199 -138q88 -94 131 -206q45 -117 45 -254q0 -129 -47 -252q-45 -119 -133 -209q-84 -88 -197 -137q-111 -49 -237 -50q-127 0 -238 52q-119 51 -199 137 q-88 94 -133 209t-45 250zM500 326h344v41l-62 8q-27 6 -37 16q-8 14 -8 41v252h70q92 0 123 -61q10 -27 24 -95l17 -65l12 -49q23 -45 55 -68q33 -20 95 -20h90v30q-51 18 -72 35q-43 49 -55 127q-18 88 -49 133t-111 64v4q88 16 145 65q53 51 54 129q0 193 -267 193h-368 v-41l63 -8q27 -6 33 -19q8 -8 8 -43v-563q0 -33 -8 -43q-16 -12 -33 -14l-63 -8v-41zM737 741v265q0 23 17 32q16 10 75 11q162 0 162 -152q0 -156 -176 -156h-78z" />
<glyph unicode="&#xaf;" horiz-adv-x="819" d="M115 1223h590v118h-590v-118z" />
<glyph unicode="&#xb0;" horiz-adv-x="716" d="M76 1110q0 -76 39 -141q16 -31 45 -60q20 -20 55 -45q66 -37 143 -37q78 0 144 39q68 43 102 103q37 65 37 141q0 78 -41 143q-41 68 -102 103q-63 37 -140 37q-78 0 -143 -39q-68 -41 -102 -103q-37 -63 -37 -141zM190 1110q0 76 52 129q53 55 114 55q70 0 119 -55 q51 -53 51 -129q0 -80 -51 -131q-49 -53 -117 -53q-66 0 -118 55q-49 53 -50 129z" />
<glyph unicode="&#xb1;" horiz-adv-x="1167" d="M88 0h991v119h-991v-119zM88 637h428v-404h139v404h424v119h-424v383h-139v-383h-428v-119z" />
<glyph unicode="&#xb2;" horiz-adv-x="778" d="M66 578l18 -21h573l56 182l-47 11q-20 -39 -45 -58q-20 -14 -70 -14h-332q43 113 187 188q154 84 212 148q59 63 60 155q0 111 -76 168q-74 55 -207 56q-135 0 -215 -62q-78 -59 -78 -135q0 -31 29 -53q29 -20 64 -21q45 0 53 49q35 164 141 164q57 0 84 -39 q29 -41 29 -104q0 -72 -33 -141q-39 -76 -131 -140q-252 -170 -272 -333z" />
<glyph unicode="&#xb3;" horiz-adv-x="778" d="M74 698q0 -41 37 -77q41 -37 104 -58q61 -20 143 -20q59 0 101 8q45 6 82 20q74 27 114 82q39 51 39 129q0 106 -73 158q-41 33 -72 43q-31 14 -72 14v4q74 18 125 62q55 41 55 127q0 72 -41 119q-43 49 -102 63q-53 20 -131 21q-119 0 -197 -54q-78 -53 -77 -118 q0 -35 26 -56q27 -20 58 -20q39 0 47 37q41 154 133 153q66 0 92 -49q25 -49 24 -104q0 -63 -26 -109q-29 -47 -86 -47l-33 2l-37 4l-47 8q-35 0 -35 -49q0 -47 35 -47l37 6q31 8 80 8t94 -36q47 -38 47 -136q0 -186 -143 -186q-55 0 -94 39q-43 37 -68 109q-16 41 -47 40 q-35 0 -62 -26q-31 -27 -30 -64z" />
<glyph unicode="&#xb4;" horiz-adv-x="819" d="M264 1151l31 -41l309 172q115 61 115 111q0 31 -29 59q-29 29 -51 29q-47 0 -131 -84z" />
<glyph unicode="&#xb5;" horiz-adv-x="1241" d="M53 926l78 -11q43 -8 53 -22q12 -18 13 -70v-1231q0 -96 73 -96q47 0 99 39q49 39 49 86q-2 33 -53 131q-25 47 -43 109q-10 29 -13 57q0 8 -2 14q-2 16 -2 21v22v68h4q45 -39 88 -51q49 -16 123 -17q74 0 133 27l68 35l61 37l54 32l26 17l21 -123h327v59l-57 7l-49 8 q-27 10 -37 30q-10 25 -10 74v838l-15 12l-321 -51v-51l78 -11q45 -8 55 -22q10 -16 10 -70v-461l-4 -77q-4 -31 -12 -45q-37 -72 -107 -111q-68 -43 -145 -43q-90 0 -150 59q-57 57 -57 174v697l-14 12l-322 -51v-51z" />
<glyph unicode="&#xb6;" horiz-adv-x="1136" d="M131 954q0 -188 123 -315q121 -127 309 -127h33v905h-25q-129 0 -231 -59q-104 -59 -156 -166q-53 -109 -53 -238zM537 -154v-53h352v1477q0 43 12 57q12 16 43 19l139 18v53h-340v-1470q0 -47 -14 -62q-14 -18 -41 -20z" />
<glyph unicode="&#xb7;" horiz-adv-x="542" d="M143 514q0 -53 35 -92q39 -37 94 -37q61 0 95 39q35 39 34 90q0 55 -34 96q-33 37 -95 37q-61 0 -94 -39q-35 -37 -35 -94z" />
<glyph unicode="&#xb8;" horiz-adv-x="819" d="M334 -412v-53q43 -6 90 -6q84 0 166 39q84 41 84 141q0 88 -56 129q-55 39 -126 49l65 113h-84l-94 -172l8 -14q127 0 127 -111q0 -115 -180 -115z" />
<glyph unicode="&#xb9;" horiz-adv-x="778" d="M166 557h463v45l-111 10q-45 0 -45 54v718l-14 9l-293 -43v-39l125 -17q31 -8 31 -49v-579q0 -53 -43 -54l-113 -10v-45z" />
<glyph unicode="&#xba;" horiz-adv-x="815" d="M72 874q0 -154 86 -243q86 -88 248 -88q170 0 251 86q86 86 86 245q0 160 -86 248q-82 86 -251 86q-82 0 -146 -22q-59 -20 -104 -66q-84 -90 -84 -246zM242 874q0 25 4 66q4 35 8 51q10 55 31 88q43 72 121 72q82 0 124 -72q43 -70 43 -205t-45 -204q-43 -70 -122 -70 q-80 0 -121 72q-20 37 -31 86q-12 48 -12 116z" />
<glyph unicode="&#xbb;" horiz-adv-x="905" d="M84 117l41 -33l307 373q10 16 10 32q0 20 -10 31l-307 371l-41 -35l162 -334q10 -16 10 -33q-4 -27 -10 -36zM463 117l41 -33l307 373q10 16 10 32q0 20 -10 31l-307 371l-41 -35l162 -334q10 -16 10 -33q-4 -27 -10 -36z" />
<glyph unicode="&#xbc;" horiz-adv-x="1740" d="M43 1180l2 -9v-10v-12l2 -29q4 -8 8 -10q14 2 107 49q90 43 108 43q10 -2 13 -14q2 -10 2 -53v-13v-555q0 -20 -2 -28q0 -4 -2 -11q0 -6 -2 -10q-10 -16 -29 -22q-20 -6 -66 -7l-63 -2v-41l112 3l113 2l113 -2l112 -3v41l-63 2l-53 5q-25 6 -29 10q-10 8 -14 24 q-4 20 -4 39v731l-19 9q-45 -25 -78 -37q-37 -16 -78 -33q-66 -23 -190 -57zM360 -61h142l1024 1556h-144zM1075 252l12 -37l39 2h80q35 2 76 2h80q35 2 80 2v-104q0 -20 -2 -29q0 -4 -2 -10q0 -6 -2 -10q-6 -18 -27 -23q-20 -6 -66 -6l-63 -2v-41l111 2l108 2l113 -2 l108 -2v41l-61 2l-53 4q-20 6 -31 10q-14 14 -16 27q-2 8 -3 37v104q88 0 146 -6l-2 16l-2 19v16l4 37q-2 0 -14 -2q-8 0 -15 -2h-33h-12h-72v432l7 117l-19 6l-90 -33l-100 -145l-101 -150l-96 -145zM1163 299l86 137l86 135l107 154v-428h-76l-66 -2z" />
<glyph unicode="&#xbd;" horiz-adv-x="1740" d="M43 1180l2 -9v-10v-12l2 -29q4 -8 8 -10q14 2 107 49q90 43 108 43q10 -2 13 -14q2 -10 2 -53v-13v-555q0 -20 -2 -28q0 -4 -2 -11q0 -6 -2 -10q-10 -16 -29 -22q-20 -6 -66 -7l-63 -2v-41l112 3l113 2l113 -2l112 -3v41l-63 2l-53 5q-25 6 -29 10q-10 8 -14 24 q-4 20 -4 39v731l-19 9q-45 -25 -78 -37q-37 -16 -78 -33q-66 -23 -190 -57zM360 -61h142l1024 1556h-144zM1102 -4l135 2l180 2h107h104l80 -4l6 4l-6 55q0 14 6 47l-6 7l-43 -5q-8 0 -14 -2h-17l-16 -2h-62l-73 -2h-240l76 72l72 63l73 70l58 55q53 57 84 97q4 8 10 16 q12 20 16 27q10 18 17 34q2 10 6 25q2 2 2 4q2 4 2 10t2 11l2 47q0 61 -35 119q-35 57 -96 86q-68 29 -141 28l-50 -4l-43 -6q-43 -10 -75 -29q-18 -8 -35 -22q-20 -16 -33 -29l-2 -35l-4 -39l-16 -96h38l27 80q14 33 33 47q16 16 49 27q37 10 82 10q49 0 92 -25 q43 -23 64 -61q23 -41 22 -88q0 -37 -10 -78q-12 -35 -37 -76q-18 -31 -66 -88l-100 -104l-225 -217v-33z" />
<glyph unicode="&#xbe;" horiz-adv-x="1740" d="M18 645q37 -90 54 -178q43 -20 80 -27q35 -6 77 -6q27 0 37 2q25 4 39 6q39 6 72 19q37 16 67 31q29 16 56 36q55 45 82 103q29 61 28 117q0 162 -211 180q45 31 76 61q25 25 45 66q18 41 19 82q0 33 -17 69q-20 37 -51 60q-37 25 -74 34q-39 12 -94 13q-141 0 -225 -90 l-35 -148h41q18 57 41 90q23 35 55 49q31 14 96 15q66 0 113 -41q43 -43 43 -107q0 -43 -22 -84q-20 -37 -62 -59q-39 -23 -84 -23h-26l-37 5l-13 -68l9 -8q66 31 122 30q53 0 93 -20q39 -20 57 -61q20 -39 20 -93q0 -63 -24 -116q-29 -51 -72 -72q-45 -27 -110 -27 q-61 0 -107 23q-43 23 -65 57q-25 31 -56 94zM358 -61h144l1024 1556h-144zM1075 252l12 -37l39 2h80q35 2 76 2h80q35 2 80 2v-104q0 -20 -2 -29q0 -4 -2 -10q0 -6 -2 -10q-6 -18 -27 -23q-20 -6 -66 -6l-63 -2v-41l111 2l108 2l113 -2l108 -2v41l-61 2l-53 4q-20 6 -31 10 q-14 14 -16 27q-2 8 -3 37v104q88 0 146 -6l-2 16l-2 19v16l4 37q-2 0 -14 -2q-8 0 -15 -2h-33h-12h-72v432l7 117l-19 6l-90 -33l-100 -145l-101 -150l-96 -145zM1163 299l86 137l86 135l107 154v-428h-76l-66 -2z" />
<glyph unicode="&#xc0;" horiz-adv-x="1300" d="M-59 0h450v59l-106 11q-59 10 -60 41l8 41l125 395h459l137 -391l9 -27q2 -4 2 -16q0 -39 -66 -45l-92 -9v-59h524v59l-96 15q-29 10 -45 32q-16 20 -37 76l-434 1235h-152l-215 -606l-53 -152l-59 -167l-58 -152l-51 -139q-27 -63 -43 -88q-18 -27 -51 -39 q-25 -10 -45 -13l-51 -2v-59zM342 1716q6 -29 29 -45q25 -14 96 -37l348 -114l23 45l-297 202q-53 35 -76 45q-31 10 -57 11q-23 -6 -46 -41q-20 -33 -20 -66zM385 625l25 73l28 86l51 154l50 137l45 135h6l203 -585h-408z" />
<glyph unicode="&#xc1;" horiz-adv-x="1300" d="M-59 0h450v59l-106 11q-59 10 -60 41l8 41l125 395h459l137 -391l9 -27q2 -4 2 -16q0 -39 -66 -45l-92 -9v-59h524v59l-96 15q-29 10 -45 32q-16 20 -37 76l-434 1235h-152l-215 -606l-53 -152l-59 -167l-58 -152l-51 -139q-27 -63 -43 -88q-18 -27 -51 -39 q-25 -10 -45 -13l-51 -2v-59zM385 625l25 73l28 86l51 154l50 137l45 135h6l203 -585h-408zM440 1565l23 -45l348 114q76 27 98 39q25 14 27 43q0 25 -23 66q-20 37 -43 41q-14 0 -34 -4q-4 -2 -13 -4q-10 -2 -12 -5q-33 -14 -74 -43z" />
<glyph unicode="&#xc2;" horiz-adv-x="1300" d="M-59 0h450v59l-106 11q-59 10 -60 41l8 41l125 395h459l137 -391l9 -27q2 -4 2 -16q0 -39 -66 -45l-92 -9v-59h524v59l-96 15q-29 10 -45 32q-16 20 -37 76l-434 1235h-152l-215 -606l-53 -152l-59 -167l-58 -152l-51 -139q-27 -63 -43 -88q-18 -27 -51 -39 q-25 -10 -45 -13l-51 -2v-59zM338 1511l27 -43l219 125q51 29 67 29q14 0 68 -29l219 -125l27 43l-238 234q-55 49 -76 49q-16 0 -33 -12l-43 -37zM385 625l25 73l28 86l51 154l50 137l45 135h6l203 -585h-408z" />
<glyph unicode="&#xc3;" horiz-adv-x="1300" d="M-59 0h450v59l-106 11q-59 10 -60 41l8 41l125 395h459l137 -391l9 -27q2 -4 2 -16q0 -39 -66 -45l-92 -9v-59h524v59l-96 15q-29 10 -45 32q-16 20 -37 76l-434 1235h-152l-215 -606l-53 -152l-59 -167l-58 -152l-51 -139q-27 -63 -43 -88q-18 -27 -51 -39 q-25 -10 -45 -13l-51 -2v-59zM287 1507l39 -26q39 57 69 82q33 23 78 22q55 0 164 -39l57 -18l56 -15q31 -6 51 -6q70 0 117 47q41 41 96 148l-41 22q-51 -61 -74 -77q-29 -16 -65 -17q-23 0 -48 6l-49 13l-59 20q-98 39 -162 39q-63 0 -104 -33q-41 -31 -66 -61 q-2 -4 -12 -19q-2 -4 -12 -20q-4 -6 -17 -31q-16 -35 -18 -37zM385 625l25 73l28 86l51 154l50 137l45 135h6l203 -585h-408z" />
<glyph unicode="&#xc4;" horiz-adv-x="1300" d="M-59 0h450v59l-106 11q-59 10 -60 41l8 41l125 395h459l137 -391l9 -27q2 -4 2 -16q0 -39 -66 -45l-92 -9v-59h524v59l-96 15q-29 10 -45 32q-16 20 -37 76l-434 1235h-152l-215 -606l-53 -152l-59 -167l-58 -152l-51 -139q-27 -63 -43 -88q-18 -27 -51 -39 q-25 -10 -45 -13l-51 -2v-59zM319 1612q0 -45 33 -78q35 -35 86 -35q57 0 88 35t31 78q0 27 -14 53q-14 27 -41 41q-29 16 -64 16q-55 0 -88 -32q-31 -33 -31 -78zM385 625l25 73l28 86l51 154l50 137l45 135h6l203 -585h-408zM745 1612q0 -45 33 -78q35 -35 86 -35 q57 0 88 35t31 78q0 27 -14 53q-14 27 -41 41q-29 16 -64 16q-55 0 -88 -32q-31 -33 -31 -78z" />
<glyph unicode="&#xc5;" horiz-adv-x="1284" d="M-66 0h451v59l-106 11q-59 10 -60 41l8 41l125 395h459l137 -391q10 -31 10 -43q0 -39 -65 -45l-92 -9v-59h524v59l-96 15q-29 10 -45 32q-16 20 -37 76l-418 1182q131 39 131 192q0 109 -63 158t-158 49q-94 0 -158 -51q-63 -51 -63 -156q0 -150 127 -190l-199 -555 l-53 -152l-60 -167l-57 -152l-51 -139q-20 -55 -41 -86q-23 -29 -53 -41q-29 -10 -45 -13l-52 -2v-59zM379 625l37 108l65 197l97 280h6l202 -585h-407zM537 1556q0 139 102 140q102 -1 102 -140t-102 -139t-102 139z" />
<glyph unicode="&#xc6;" horiz-adv-x="1794" d="M-129 0h473v59l-135 15q-35 0 -35 30l4 27l41 92l76 152l166 323h352v-503q0 -53 -10 -89q-12 -25 -43 -30q-35 -10 -60 -13q-37 -4 -71 -4v-59h1081l25 354h-62q-14 -90 -47 -149q-27 -57 -72 -86q-47 -29 -108 -37q-72 -10 -170 -10q-49 0 -72 2t-59 6q-53 6 -78 18 q-31 18 -43 56q-12 35 -12 102v442h286q82 0 125 -16q41 -16 54 -53q8 -16 14 -45q0 -6 4 -25q2 -23 4 -39h62v432h-62q-16 -84 -26 -112q-12 -31 -50 -47q-43 -16 -125 -17h-286v496q0 45 12 59q14 14 63 15h201q115 0 176 -21q66 -20 92 -80q16 -27 25 -67q12 -53 16 -97 h62v336h-1170v-59l154 -12q39 -6 39 -27q0 -20 -14 -43l-252 -461l-133 -248l-74 -139l-70 -125l-41 -74l-41 -71q-37 -61 -67 -74q-31 -16 -119 -25v-59zM500 776l69 129l101 189l131 241h12v-559h-313z" />
<glyph unicode="&#xc7;" horiz-adv-x="1392" d="M98 698q0 -59 6 -114q4 -37 17 -107q29 -106 67 -188q39 -80 105 -146q55 -55 129 -92q74 -39 158 -53q33 -8 49 -10q10 -2 22 -4t23 -4q43 -6 92 -7l-80 -145l8 -14q127 0 127 -111q0 -115 -180 -115v-53q47 -6 90 -6q86 0 166 39q84 41 84 141q0 88 -55 129 q-55 39 -127 49l47 82q74 0 176 17q98 16 152 32l53 19l73 31l29 342h-61q-53 -182 -148 -275q-94 -94 -282 -94q-193 0 -308 109q-117 109 -159 256q-43 152 -43 299q0 129 28 253q27 117 90 213q66 98 162 152q96 53 234 53q166 0 268 -78q96 -76 125 -249h61v319 q-27 14 -57 25q-41 12 -61 16q-51 18 -125 29q-45 4 -74 6l-27 2t-90 2q-100 0 -180 -14t-158 -41q-145 -51 -239 -156q-186 -207 -187 -539z" />
<glyph unicode="&#xc8;" horiz-adv-x="1241" d="M72 0h1085l25 354h-62q-29 -129 -69 -186q-43 -59 -117 -78q-76 -18 -211 -18q-160 0 -213 20q-31 14 -41 47q-10 31 -10 107v452h286q82 0 125 -16q41 -16 54 -53q8 -16 14 -45q0 -6 4 -25q2 -23 4 -39h62v432h-62q-16 -84 -26 -112q-12 -31 -50 -47q-43 -16 -125 -17 h-286v496q0 49 12 61q16 12 64 13h200q115 0 176 -21q66 -20 93 -80q16 -27 24 -67q12 -53 16 -97h62v336h-1034v-59q45 0 59 -2l53 -8q37 -10 52 -19q12 -8 16 -22l4 -33v-35v-12v-1037v-43l-4 -30q-2 -18 -23 -31q-16 -10 -39 -14l-61 -11q-10 0 -18 -2h-17h-22v-59z M301 1716q6 -29 29 -45q25 -14 96 -37l348 -114l23 45l-297 202q-53 35 -76 45q-31 10 -57 11q-23 -6 -45 -41q-20 -33 -21 -66z" />
<glyph unicode="&#xc9;" horiz-adv-x="1241" d="M72 0h1085l25 354h-62q-29 -129 -69 -186q-43 -59 -117 -78q-76 -18 -211 -18q-160 0 -213 20q-31 14 -41 47q-10 31 -10 107v452h286q82 0 125 -16q41 -16 54 -53q8 -16 14 -45q0 -6 4 -25q2 -23 4 -39h62v432h-62q-16 -84 -26 -112q-12 -31 -50 -47q-43 -16 -125 -17 h-286v496q0 49 12 61q16 12 64 13h200q115 0 176 -21q66 -20 93 -80q16 -27 24 -67q12 -53 16 -97h62v336h-1034v-59q45 0 59 -2l53 -8q37 -10 52 -19q12 -8 16 -22l4 -33v-35v-12v-1037v-43l-4 -30q-2 -18 -23 -31q-16 -10 -39 -14l-61 -11q-10 0 -18 -2h-17h-22v-59z M475 1565l23 -45l348 114q76 27 98 39q25 14 27 43q0 25 -23 66q-20 37 -43 41q-14 0 -35 -4q-4 -2 -12 -4q-10 -2 -12 -5q-33 -14 -74 -43z" />
<glyph unicode="&#xca;" horiz-adv-x="1241" d="M72 0h1085l25 354h-62q-29 -129 -69 -186q-43 -59 -117 -78q-76 -18 -211 -18q-160 0 -213 20q-31 14 -41 47q-10 31 -10 107v452h286q82 0 125 -16q41 -16 54 -53q8 -16 14 -45q0 -6 4 -25q2 -23 4 -39h62v432h-62q-16 -84 -26 -112q-12 -31 -50 -47q-43 -16 -125 -17 h-286v496q0 49 12 61q16 12 64 13h200q115 0 176 -21q66 -20 93 -80q16 -27 24 -67q12 -53 16 -97h62v336h-1034v-59q45 0 59 -2l53 -8q37 -10 52 -19q12 -8 16 -22l4 -33v-35v-12v-1037v-43l-4 -30q-2 -18 -23 -31q-16 -10 -39 -14l-61 -11q-10 0 -18 -2h-17h-22v-59z M307 1511l27 -43l219 125q53 29 68 29q16 0 67 -29l219 -125l27 43l-238 234q-51 49 -75 49q-2 0 -11 -2q-8 0 -10 -2l-16 -10l-19 -15l-20 -20z" />
<glyph unicode="&#xcb;" horiz-adv-x="1241" d="M72 0h1085l25 354h-62q-29 -129 -69 -186q-43 -59 -117 -78q-76 -18 -211 -18q-160 0 -213 20q-31 14 -41 47q-10 31 -10 107v452h286q82 0 125 -16q41 -16 54 -53q8 -16 14 -45q0 -6 4 -25q2 -23 4 -39h62v432h-62q-16 -84 -26 -112q-12 -31 -50 -47q-43 -16 -125 -17 h-286v496q0 49 12 61q16 12 64 13h200q115 0 176 -21q66 -20 93 -80q16 -27 24 -67q12 -53 16 -97h62v336h-1034v-59q45 0 59 -2l53 -8q37 -10 52 -19q12 -8 16 -22l4 -33v-35v-12v-1037v-43l-4 -30q-2 -18 -23 -31q-16 -10 -39 -14l-61 -11q-10 0 -18 -2h-17h-22v-59z M289 1612q0 -45 33 -78q35 -35 86 -35q57 0 88 35t30 78q0 27 -14 53q-14 27 -41 41q-29 16 -63 16q-55 0 -86 -32q-33 -33 -33 -78zM715 1612q0 -45 33 -78q35 -35 86 -35q57 0 88 35t30 78q0 27 -14 53q-14 27 -41 41q-29 16 -63 16q-55 0 -86 -32q-33 -33 -33 -78z" />
<glyph unicode="&#xcc;" horiz-adv-x="714" d="M37 1716q6 -29 29 -45q25 -14 96 -37l348 -114l22 45l-296 202q-29 20 -41 27l-2 2q-23 12 -33 14q-31 12 -58 13q-23 -6 -45 -41q-20 -33 -20 -66zM72 0h571v59h-25q-4 0 -24 2l-25 2l-55 11q-35 8 -45 35q-10 25 -10 81v1037q0 59 10 84q12 27 41 32q6 2 14 5q8 2 15 4 q10 2 30 2q37 4 74 4v59h-571v-59q45 0 59 -2l53 -8q37 -10 52 -19q12 -8 16 -22l4 -33v-35v-12v-1037v-43l-4 -30q-2 -18 -23 -31q-16 -10 -39 -14l-61 -11q-10 0 -18 -2h-17h-22v-59z" />
<glyph unicode="&#xcd;" horiz-adv-x="714" d="M72 0h571v59h-25q-4 0 -24 2l-25 2l-55 11q-35 8 -45 35q-10 25 -10 81v1037q0 59 10 84q12 27 41 32q6 2 14 5q8 2 15 4q10 2 30 2q37 4 74 4v59h-571v-59q45 0 59 -2l53 -8q37 -10 52 -19q12 -8 16 -22l4 -33v-35v-12v-1037v-43l-4 -30q-2 -18 -23 -31q-16 -10 -39 -14 l-61 -11q-10 0 -18 -2h-17h-22v-59zM182 1565l23 -45l348 114q76 27 98 39q25 14 27 43q0 25 -23 66q-20 37 -43 41q-14 0 -34 -4q-4 -2 -13 -4q-10 -2 -12 -5q-33 -14 -74 -43z" />
<glyph unicode="&#xce;" horiz-adv-x="714" d="M45 1511l27 -43l219 125q51 29 67 29q14 0 68 -29l219 -125l27 43l-238 234q-51 49 -76 49q-23 0 -75 -49zM72 0h571v59h-25q-4 0 -24 2l-25 2l-55 11q-35 8 -45 35q-10 25 -10 81v1037q0 59 10 84q12 27 41 32q6 2 14 5q8 2 15 4q10 2 30 2q37 4 74 4v59h-571v-59 q45 0 59 -2l53 -8q37 -10 52 -19q12 -8 16 -22l4 -33v-35v-12v-1037v-43l-4 -30q-2 -18 -23 -31q-16 -10 -39 -14l-61 -11q-10 0 -18 -2h-17h-22v-59z" />
<glyph unicode="&#xcf;" horiz-adv-x="714" d="M27 1612q0 -45 32 -78q35 -35 86 -35q57 0 88 35t31 78q0 27 -14 53q-14 27 -41 41q-29 16 -64 16q-55 0 -86 -32q-33 -33 -32 -78zM72 0h571v59h-25q-4 0 -24 2l-25 2l-55 11q-35 8 -45 35q-10 25 -10 81v1037q0 59 10 84q12 27 41 32q6 2 14 5q8 2 15 4q10 2 30 2 q37 4 74 4v59h-571v-59q45 0 59 -2l53 -8q37 -10 52 -19q12 -8 16 -22l4 -33v-35v-12v-1037v-43l-4 -30q-2 -18 -23 -31q-16 -10 -39 -14l-61 -11q-10 0 -18 -2h-17h-22v-59zM453 1612q0 -45 32 -78q35 -35 86 -35q57 0 88 35t31 78q0 27 -14 53q-14 27 -41 41 q-29 16 -64 16q-55 0 -86 -32q-33 -33 -32 -78z" />
<glyph unicode="&#xd0;" horiz-adv-x="1607" d="M41 698h227v-508l-2 -43l-4 -30q-4 -18 -20 -31q-18 -10 -39 -14l-64 -11q-8 0 -16 -2h-17h-22v-59h639q96 0 190 12q102 16 172 39q88 35 158 80q41 29 78 66t63 77q33 47 52 91q27 63 39 106q35 121 34 262q0 154 -47 289q-45 133 -137 217q-61 59 -147 100 q-53 25 -91 35q-45 16 -98 25q-100 18 -225 18h-680v-59q45 0 59 -2l54 -8q37 -10 51 -19q14 -8 14 -22l6 -33v-35v-12v-451h-227v-78zM471 256v442h283v78h-283v453q0 59 14 80q16 23 60 28q35 8 164 9q156 0 266 -46q111 -47 174 -126q131 -162 131 -449q0 -86 -10 -172 q-12 -82 -33 -141q-43 -131 -125 -203q-84 -80 -186 -107q-106 -31 -242 -30q-100 0 -137 14q-43 10 -60 49q-16 39 -16 121z" />
<glyph unicode="&#xd1;" horiz-adv-x="1597" d="M70 1358q45 0 59 -2l53 -8q37 -10 51 -19q12 -8 17 -22l4 -33v-35v-12v-811q0 -160 -14 -254q-10 -61 -43 -76q-31 -16 -125 -27v-59h485v59l-55 7l-60 8q-35 10 -55 26q-18 20 -27 66q-8 59 -10 104q-2 39 -2 146v817h4l205 -287l240 -338l196 -278l232 -330h135v1001 l4 148l2 57l8 49q10 59 43 78q20 12 51 19q29 6 74 6v59h-485v-59q25 0 39 -2q4 0 20 -2q10 0 21 -2l30 -6q41 -10 58 -29q20 -20 26 -62q14 -88 15 -254v-718l-4 4l-297 420l-269 376l-233 334h-393v-59zM446 1507l39 -26q39 57 70 82q33 23 78 22q55 0 164 -39l53 -16 l59 -17q31 -6 52 -6q70 0 116 47q41 41 97 148l-41 22q-51 -61 -72 -75q-25 -18 -68 -19q-20 0 -49 6l-47 13l-59 20q-102 39 -162 39q-59 0 -105 -29q-45 -33 -65 -67q-6 -8 -21 -29l-6 -12q-10 -18 -33 -64z" />
<glyph unicode="&#xd2;" horiz-adv-x="1560" d="M98 709q0 -41 4 -111q4 -35 17 -104q20 -100 61 -185q41 -82 92 -141q178 -199 508 -199q334 0 508 199q88 96 129 231q45 133 45 310q0 178 -45 313q-45 139 -129 227q-178 199 -508 199t-508 -199q-53 -63 -94 -143q-37 -76 -59 -178q-20 -90 -21 -219zM328 709 q0 2 2 20q0 18 2 57q2 12 2 43l16 119q23 119 74 213q53 102 141 160q86 55 215 55q170 0 271 -98q102 -98 141 -248q18 -70 31 -151q10 -86 10 -170q0 -59 -2 -88q0 -12 -4 -46q-2 -20 -4 -34q-2 -18 -13 -62q-2 -12 -4 -18l-6 -27q-6 -33 -10 -49q-41 -152 -139 -248 q-102 -96 -271 -96q-170 0 -268 98q-100 98 -141 246q-20 74 -31 154q-12 80 -12 170zM436 1716q6 -29 29 -45q25 -14 96 -37l348 -114l23 45l-297 202q-49 33 -78 45q-27 10 -55 11q-23 -6 -45 -41q-20 -33 -21 -66z" />
<glyph unicode="&#xd3;" horiz-adv-x="1560" d="M98 709q0 -41 4 -111q4 -35 17 -104q20 -100 61 -185q41 -82 92 -141q178 -199 508 -199q334 0 508 199q88 96 129 231q45 133 45 310q0 178 -45 313q-45 139 -129 227q-178 199 -508 199t-508 -199q-53 -63 -94 -143q-37 -76 -59 -178q-20 -90 -21 -219zM328 709 q0 2 2 20q0 18 2 57q2 12 2 43l16 119q23 119 74 213q53 102 141 160q86 55 215 55q170 0 271 -98q102 -98 141 -248q18 -70 31 -151q10 -86 10 -170q0 -59 -2 -88q0 -12 -4 -46q-2 -20 -4 -34q-2 -18 -13 -62q-2 -12 -4 -18l-6 -27q-6 -33 -10 -49q-41 -152 -139 -248 q-102 -96 -271 -96q-170 0 -268 98q-100 98 -141 246q-20 74 -31 154q-12 80 -12 170zM578 1565l22 -45l348 114q76 27 99 39q25 16 26 43q0 25 -22 66q-20 37 -43 41q-14 0 -35 -4q-4 -2 -12 -4q-10 -2 -13 -5q-27 -14 -74 -43z" />
<glyph unicode="&#xd4;" horiz-adv-x="1560" d="M98 709q0 -41 4 -111q4 -35 17 -104q20 -100 61 -185q41 -82 92 -141q178 -199 508 -199q334 0 508 199q88 96 129 231q45 133 45 310q0 178 -45 313q-45 139 -129 227q-178 199 -508 199t-508 -199q-53 -63 -94 -143q-37 -76 -59 -178q-20 -90 -21 -219zM328 709 q0 2 2 20q0 18 2 57q2 12 2 43l16 119q23 119 74 213q53 102 141 160q86 55 215 55q170 0 271 -98q102 -98 141 -248q18 -70 31 -151q10 -86 10 -170q0 -59 -2 -88q0 -12 -4 -46q-2 -20 -4 -34q-2 -18 -13 -62q-2 -12 -4 -18l-6 -27q-6 -33 -10 -49q-41 -152 -139 -248 q-102 -96 -271 -96q-170 0 -268 98q-100 98 -141 246q-20 74 -31 154q-12 80 -12 170zM467 1511l27 -43l219 125q51 29 67 29q14 0 68 -29l219 -125l27 43l-238 234q-55 49 -76 49q-23 0 -75 -49z" />
<glyph unicode="&#xd5;" horiz-adv-x="1560" d="M98 709q0 -41 4 -111q4 -35 17 -104q20 -100 61 -185q41 -82 92 -141q178 -199 508 -199q334 0 508 199q88 96 129 231q45 133 45 310q0 178 -45 313q-45 139 -129 227q-178 199 -508 199t-508 -199q-53 -63 -94 -143q-37 -76 -59 -178q-20 -90 -21 -219zM328 709 q0 2 2 20q0 18 2 57q2 12 2 43l16 119q23 119 74 213q53 102 141 160q86 55 215 55q170 0 271 -98q102 -98 141 -248q18 -70 31 -151q10 -86 10 -170q0 -59 -2 -88q0 -12 -4 -46q-2 -20 -4 -34q-2 -18 -13 -62q-2 -12 -4 -18l-6 -27q-6 -33 -10 -49q-41 -152 -139 -248 q-102 -96 -271 -96q-170 0 -268 98q-100 98 -141 246q-20 74 -31 154q-12 80 -12 170zM416 1507l39 -26q39 57 69 82q33 23 78 22q55 0 164 -39l57 -18l56 -15q31 -6 51 -6q70 0 117 47q41 41 96 148l-41 22q-51 -61 -74 -77q-29 -16 -65 -17q-23 0 -48 6l-49 13l-59 20 q-98 39 -162 39q-63 0 -104 -33q-41 -31 -66 -61q-2 -4 -12 -19q-2 -4 -12 -20q-4 -6 -17 -31q-16 -35 -18 -37z" />
<glyph unicode="&#xd6;" horiz-adv-x="1560" d="M98 709q0 -41 4 -111q4 -35 17 -104q20 -100 61 -185q41 -82 92 -141q178 -199 508 -199q334 0 508 199q88 96 129 231q45 133 45 310q0 178 -45 313q-45 139 -129 227q-178 199 -508 199t-508 -199q-53 -63 -94 -143q-37 -76 -59 -178q-20 -90 -21 -219zM328 709 q0 2 2 20q0 18 2 57q2 12 2 43l16 119q23 119 74 213q53 102 141 160q86 55 215 55q170 0 271 -98q102 -98 141 -248q18 -70 31 -151q10 -86 10 -170q0 -59 -2 -88q0 -12 -4 -46q-2 -20 -4 -34q-2 -18 -13 -62q-2 -12 -4 -18l-6 -27q-6 -33 -10 -49q-41 -152 -139 -248 q-102 -96 -271 -96q-170 0 -268 98q-100 98 -141 246q-20 74 -31 154q-12 80 -12 170zM449 1612q0 -45 32 -78q35 -35 86 -35q57 0 88 35t31 78q0 27 -14 53q-14 27 -41 41q-29 16 -64 16q-55 0 -86 -32q-33 -33 -32 -78zM874 1612q0 -47 33 -80t86 -33q57 0 88 35t31 78 q0 27 -14 53q-14 27 -41 41q-29 16 -64 16q-55 0 -86 -32q-33 -33 -33 -78z" />
<glyph unicode="&#xd7;" horiz-adv-x="1167" d="M129 135l84 -90l371 377l368 -377l86 90l-366 377l366 373l-86 94l-368 -377l-371 377l-84 -94l367 -373z" />
<glyph unicode="&#xd8;" horiz-adv-x="1560" d="M98 709q0 -41 4 -111q4 -35 17 -104q20 -100 61 -185q41 -82 92 -141l37 -37q6 -4 17 -14q12 -10 18 -17l-100 -159l65 -50l105 166q150 -88 366 -88q334 0 508 199q88 96 129 231q45 133 45 310q0 178 -45 313q-45 139 -129 227q-37 43 -76 70l97 151l-70 43l-94 -151 q-33 20 -78 37q-45 20 -86 26q-45 12 -94 17q-57 6 -107 6q-330 0 -508 -199q-53 -63 -94 -143q-37 -76 -59 -178q-20 -90 -21 -219zM328 709q0 2 2 20q0 18 2 57q2 12 2 43l16 119q23 119 74 213q53 102 141 160q86 55 215 55q188 0 295 -123l-643 -1013q-47 82 -78 204 q-14 51 -20 125q-6 66 -6 140zM483 168l643 1014q106 -174 107 -473q0 -59 -2 -88q0 -12 -4 -46q-2 -20 -4 -34q-2 -18 -13 -62q-2 -12 -4 -18l-6 -27q-6 -33 -10 -49q-41 -152 -139 -248q-102 -96 -271 -96q-182 0 -297 127z" />
<glyph unicode="&#xd9;" horiz-adv-x="1619" d="M59 1358l113 -10q35 -6 49 -19q16 -8 19 -31q4 -12 4 -24v-35v-12v-709q0 -35 6 -88l8 -82q16 -72 41 -129q117 -250 510 -250q395 0 512 250q55 115 55 303v705q0 63 8 86q12 23 39 28q10 4 31 9q6 2 16 2q8 0 15 2q6 2 18 2q10 2 17 2h41v59h-572v-59l64 -4l67 -11 q35 -10 45 -32q8 -18 9 -84v-664q0 -276 -95 -397q-94 -125 -270 -125q-174 0 -270 123q-92 123 -93 399v664q0 53 11 84q12 27 41 32q6 2 14 5q8 2 14 4q10 2 31 2q37 4 74 4v59h-572v-59zM440 1716q6 -29 29 -45q25 -14 96 -37l348 -114l23 45l-297 202q-45 31 -74 43 q-33 12 -59 13q-23 -6 -45 -41q-20 -33 -21 -66z" />
<glyph unicode="&#xda;" horiz-adv-x="1619" d="M59 1358l113 -10q35 -6 49 -19q16 -8 19 -31q4 -12 4 -24v-35v-12v-709q0 -35 6 -88l8 -82q16 -72 41 -129q117 -250 510 -250q395 0 512 250q55 115 55 303v705q0 63 8 86q12 23 39 28q10 4 31 9q6 2 16 2q8 0 15 2q6 2 18 2q10 2 17 2h41v59h-572v-59l64 -4l67 -11 q35 -10 45 -32q8 -18 9 -84v-664q0 -276 -95 -397q-94 -125 -270 -125q-174 0 -270 123q-92 123 -93 399v664q0 53 11 84q12 27 41 32q6 2 14 5q8 2 14 4q10 2 31 2q37 4 74 4v59h-572v-59zM629 1565l22 -45l348 114l64 23l35 14q25 20 26 45q0 31 -22 70q-20 35 -43 37 q-18 0 -29 -2l-16 -4q-10 -4 -10 -5q-37 -18 -78 -45z" />
<glyph unicode="&#xdb;" horiz-adv-x="1619" d="M59 1358l113 -10q35 -6 49 -19q16 -8 19 -31q4 -12 4 -24v-35v-12v-709q0 -35 6 -88l8 -82q16 -72 41 -129q117 -250 510 -250q395 0 512 250q55 115 55 303v705q0 63 8 86q12 23 39 28q10 4 31 9q6 2 16 2q8 0 15 2q6 2 18 2q10 2 17 2h41v59h-572v-59l64 -4l67 -11 q35 -10 45 -32q8 -18 9 -84v-664q0 -276 -95 -397q-94 -125 -270 -125q-174 0 -270 123q-92 123 -93 399v664q0 53 11 84q12 27 41 32q6 2 14 5q8 2 14 4q10 2 31 2q37 4 74 4v59h-572v-59zM498 1511l26 -43l219 125q53 29 68 29q14 0 68 -29l219 -125l26 43l-237 234 q-55 49 -76 49q-20 -4 -31 -10q-8 -4 -30 -25l-15 -14z" />
<glyph unicode="&#xdc;" horiz-adv-x="1619" d="M59 1358l113 -10q35 -6 49 -19q16 -8 19 -31q4 -12 4 -24v-35v-12v-709q0 -35 6 -88l8 -82q16 -72 41 -129q117 -250 510 -250q395 0 512 250q55 115 55 303v705q0 63 8 86q12 23 39 28q10 4 31 9q6 2 16 2q8 0 15 2q6 2 18 2q10 2 17 2h41v59h-572v-59l64 -4l67 -11 q35 -10 45 -32q8 -18 9 -84v-664q0 -276 -95 -397q-94 -125 -270 -125q-174 0 -270 123q-92 123 -93 399v664q0 53 11 84q12 27 41 32q6 2 14 5q8 2 14 4q10 2 31 2q37 4 74 4v59h-572v-59zM479 1612q0 -45 33 -78q35 -35 86 -35q57 0 88 35t31 78q0 27 -15 53 q-14 27 -40 41q-29 16 -64 16q-55 0 -86 -32q-33 -33 -33 -78zM905 1612q0 -45 33 -78q35 -35 86 -35q57 0 88 35t31 78q0 27 -15 53q-14 27 -41 41q-29 16 -63 16q-55 0 -86 -32q-33 -33 -33 -78z" />
<glyph unicode="&#xdd;" horiz-adv-x="1204" d="M-25 1358q27 0 37 -2q14 -2 41 -6q20 -2 39 -15q39 -16 66 -80l192 -360l144 -281q31 -61 30 -118v-306q0 -59 -12 -84q-8 -25 -47 -30q-39 -8 -74 -13q-37 -4 -72 -4h-12v-59h637v59l-78 4l-75 11q-45 12 -54 32q-10 25 -10 84v314q0 70 27 121q80 160 164 313 q111 209 159 285q39 61 60 88q20 25 47 30q29 10 43 13q6 2 14 2t14 2h39v59h-448v-59l110 -10q33 -6 33 -31l-2 -17l-6 -18l-74 -160l-49 -102l-43 -88l-133 -266h-4q-18 35 -37 67q-35 61 -55 101q-43 80 -80 153q-74 145 -144 297q-8 10 -8 33q0 27 31 29l121 12v59h-531 v-59zM518 1565l23 -45l348 114q76 27 98 39q25 14 27 43q0 25 -23 66q-20 37 -43 41q-14 0 -35 -4q-4 -2 -12 -4q-10 -2 -12 -5q-33 -14 -74 -43z" />
<glyph unicode="&#xde;" horiz-adv-x="1214" d="M72 0h587v59q-37 0 -53 2q-20 4 -49 7l-39 6q-39 12 -49 35q-10 25 -10 81v183h159q219 0 369 94q152 90 152 301q0 94 -41 172q-43 76 -113 119q-117 74 -360 74h-166v94q0 59 10 84q12 27 41 32q6 2 14 5q8 2 15 4q10 2 30 2q37 4 74 4v59h-571v-59q45 0 59 -2l53 -8 q37 -10 52 -19q12 -8 16 -22l4 -33v-35v-12v-1037v-43l-4 -30q-2 -18 -23 -31q-16 -10 -39 -14l-61 -11q-10 0 -18 -2h-17h-22v-59zM459 528v457q0 37 14 51q18 18 43 21q20 4 39 4h53q147 0 230 -80q82 -78 82 -225q0 -168 -86 -240q-90 -72 -254 -72q-74 0 -99 19 q-23 23 -22 65z" />
<glyph unicode="&#xdf;" horiz-adv-x="1230" d="M45 0h500v59l-92 9q-27 6 -39 18q-14 8 -19 23q-2 6 -2 12q-2 8 -2 10v16v31v740q0 111 10 217q8 88 33 153q66 160 217 160q66 0 117 -33q57 -37 82 -90q29 -57 29 -125q0 -41 -13 -82q-12 -43 -32 -65q-115 -31 -179 -103q-61 -70 -61 -174q0 -94 59 -166 q25 -31 72 -69q43 -37 94 -70q98 -66 144 -127q45 -57 45 -147q0 -72 -41 -111t-95 -39q-98 0 -159 109q-18 31 -47 30q-27 0 -52 -24q-25 -25 -24 -53q0 -39 33 -66q37 -33 92 -49q29 -10 63 -14q37 -4 70 -5q96 0 172 37q72 33 115 101q39 59 39 149q0 184 -207 326 q-66 45 -123 94q-41 37 -64 74q-20 35 -20 84q0 80 65 133q61 49 174 65q55 72 56 166q0 61 -31 131q-27 74 -117 129q-88 55 -248 56q-225 0 -346 -140q-61 -68 -88 -180q-12 -49 -18 -119q-8 -63 -8 -149v-754v-41l-4 -28q-2 -14 -19 -25q-16 -14 -41 -16l-43 -7 q-10 -2 -26 -2h-21v-59z" />
<glyph unicode="&#xe0;" horiz-adv-x="1081" d="M68 209q0 -43 8 -70q10 -37 22 -57q33 -53 92 -82q55 -27 140 -27q57 0 102 19q23 10 49 24q29 16 49 31q45 31 140 123q-1 -72 -11 -178l43 6l56 2l125 -4l123 -4v69h-13q-57 0 -98 11q-35 10 -45 34q-6 10 -10 35q-2 12 -2 52v192l-2 207q0 76 -7 115q-6 41 -12 61 q-8 29 -12 39q-31 68 -107 106q-90 47 -198 48h-19q-6 0 -24 -3q-18 -2 -19 -2l-57 -14q-70 -23 -107 -43l-131 -74v-137l56 -14l16 43l16 43l21 49q39 27 78 39q41 10 86 10q254 0 254 -270l-195 -33q-74 -14 -119 -27l-8 -2q-59 -16 -84 -26q-84 -35 -139 -105 q-57 -70 -57 -186zM211 1380q0 -23 22 -49q27 -25 93 -63l268 -162h68l-295 283q-31 35 -52 43q-16 10 -39 10q-29 0 -47 -19q-18 -18 -18 -43zM242 252q0 80 43 129q47 49 104 76q29 12 70 26q10 2 18 4q37 8 55 13l138 30v-272q-55 -74 -131 -123q-70 -43 -144 -43 q-72 0 -110 45q-43 47 -43 115z" />
<glyph unicode="&#xe1;" horiz-adv-x="1064" d="M68 209q0 -43 8 -70q10 -37 22 -57q33 -53 92 -82q55 -27 140 -27q57 0 102 19q23 10 49 24q29 16 49 31q45 31 140 123q-1 -72 -11 -178l43 6l56 2l125 -4l123 -4v69h-13q-57 0 -98 11q-35 10 -45 34q-6 10 -10 35q-2 12 -2 52v192l-2 207q0 76 -7 115q-6 41 -12 61 q-8 29 -12 39q-31 68 -107 106q-90 47 -198 48h-19q-6 0 -24 -3q-18 -2 -19 -2l-57 -14q-70 -23 -107 -43l-131 -74v-137l56 -14l16 43l16 43l21 49q39 27 78 39q41 10 86 10q254 0 254 -270l-195 -33q-74 -14 -119 -27l-8 -2q-59 -16 -84 -26q-84 -35 -139 -105 q-57 -70 -57 -186zM242 252q0 80 43 129q47 49 104 76q29 12 70 26q10 2 18 4q37 8 55 13l138 30v-272q-55 -74 -131 -123q-70 -43 -144 -43q-72 0 -110 45q-43 47 -43 115zM332 995q0 -8 18 -8q12 0 29 8q16 8 31 23l358 321l49 45q18 18 19 29l-2 6q-6 14 -37 15 q-66 0 -133 -68l-37 -41l-287 -315l-6 -11z" />
<glyph unicode="&#xe2;" horiz-adv-x="1105" d="M68 209q0 -43 8 -70q10 -37 22 -57q33 -53 92 -82q55 -27 140 -27q57 0 102 19q23 10 49 24q29 16 49 31q45 31 140 123q-1 -72 -11 -178l43 6l56 2l125 -4l123 -4v69h-13q-57 0 -98 11q-35 10 -45 34q-6 10 -10 35q-2 12 -2 52v192l-2 207q0 76 -7 115q-6 41 -12 61 q-8 29 -12 39q-31 68 -107 106q-90 47 -198 48h-19q-6 0 -24 -3q-18 -2 -19 -2l-57 -14q-70 -23 -107 -43l-131 -74v-137l56 -14l16 43l16 43l21 49q39 27 78 39q41 10 86 10q254 0 254 -270l-195 -33q-74 -14 -119 -27l-8 -2q-59 -16 -84 -26q-84 -35 -139 -105 q-57 -70 -57 -186zM74 1065h102l344 315l340 -315h105l-396 377h-100zM242 252q0 80 43 129q47 49 104 76q29 12 70 26q10 2 18 4q37 8 55 13l138 30v-272q-55 -74 -131 -123q-70 -43 -144 -43q-72 0 -110 45q-43 47 -43 115z" />
<glyph unicode="&#xe3;" horiz-adv-x="1071" d="M66 1169l61 -86q35 82 61 121q29 43 56 62q29 18 61 18q49 0 92 -20q45 -23 101 -58q27 -18 55 -32q23 -12 45 -23q43 -20 88 -21q66 0 123 56q59 53 111 172l-60 84q-82 -184 -178 -185q-33 0 -70 19l-57 29l-45 26q-16 10 -43 23q-2 2 -21 12q-27 16 -49 25 q-23 12 -47 16q-20 4 -45 4q-70 0 -123 -53q-51 -53 -116 -189zM68 209q0 -43 8 -70q10 -37 22 -57q33 -53 92 -82q55 -27 140 -27q57 0 102 19q23 10 49 24q29 16 49 31q45 31 140 123q-1 -72 -11 -178l43 6l56 2l125 -4l123 -4v69h-13q-57 0 -98 11q-35 10 -45 34 q-6 10 -10 35q-2 12 -2 52v192l-2 207q0 76 -7 115q-6 41 -12 61q-8 29 -12 39q-31 68 -107 106q-90 47 -198 48h-19q-6 0 -24 -3q-18 -2 -19 -2l-57 -14q-70 -23 -107 -43l-131 -74v-137l56 -14l16 43l16 43l21 49q39 27 78 39q41 10 86 10q254 0 254 -270l-195 -33 q-74 -14 -119 -27l-8 -2q-59 -16 -84 -26q-84 -35 -139 -105q-57 -70 -57 -186zM242 252q0 80 43 129q47 49 104 76q29 12 70 26q10 2 18 4q37 8 55 13l138 30v-272q-55 -74 -131 -123q-70 -43 -144 -43q-72 0 -110 45q-43 47 -43 115z" />
<glyph unicode="&#xe4;" horiz-adv-x="1056" d="M68 209q0 -43 8 -70q10 -37 22 -57q33 -53 92 -82q55 -27 140 -27q57 0 102 19q23 10 49 24q29 16 49 31q45 31 140 123q-1 -72 -11 -178l43 6l56 2l125 -4l123 -4v69h-13q-57 0 -98 11q-35 10 -45 34q-6 10 -10 35q-2 12 -2 52v192l-2 207q0 76 -7 115q-6 41 -12 61 q-8 29 -12 39q-31 68 -107 106q-90 47 -198 48h-19q-6 0 -24 -3q-18 -2 -19 -2l-57 -14q-70 -23 -107 -43l-131 -74v-137l56 -14l16 43l16 43l21 49q39 27 78 39q41 10 86 10q254 0 254 -270l-195 -33q-74 -14 -119 -27l-8 -2q-59 -16 -84 -26q-84 -35 -139 -105 q-57 -70 -57 -186zM164 1325q0 -47 35 -82t82 -35q45 0 81 35q35 35 35 82q0 31 -14 57q-16 31 -43 45q-26 15 -59 15q-49 0 -82 -33q-35 -37 -35 -84zM242 252q0 80 43 129q47 49 104 76q29 12 70 26q10 2 18 4q37 8 55 13l138 30v-272q-55 -74 -131 -123q-70 -43 -144 -43 q-72 0 -110 45q-43 47 -43 115zM582 1325q0 -47 34 -82q35 -35 82 -35q45 0 80 35q37 35 37 82q0 29 -16 57q-16 31 -43 45q-27 15 -58 15q-51 0 -84 -33q-33 -35 -32 -84z" />
<glyph unicode="&#xe5;" horiz-adv-x="1073" d="M68 209q0 -43 8 -70q10 -37 22 -57q33 -53 92 -82q55 -27 140 -27q57 0 102 19q23 10 49 24q29 16 49 31q45 31 140 123q-1 -72 -11 -178l43 6l56 2l125 -4l123 -4v69h-13q-57 0 -98 11q-35 10 -45 34q-6 10 -10 35q-2 12 -2 52v192l-2 207q0 76 -7 115q-6 41 -12 61 q-8 29 -12 39q-31 68 -107 106q-90 47 -198 48h-19q-6 0 -24 -3q-18 -2 -19 -2l-57 -14q-70 -23 -107 -43l-131 -74v-137l56 -14l16 43l16 43l21 49q39 27 78 39q41 10 86 10q254 0 254 -270l-195 -33q-74 -14 -119 -27l-8 -2q-59 -16 -84 -26q-84 -35 -139 -105 q-57 -70 -57 -186zM182 1292q0 -37 35 -69q33 -29 96 -45q57 -14 144 -15q84 0 159 17q70 18 107 49q37 35 37 74t-35 69q-35 31 -94 45q-66 16 -146 17q-90 0 -161 -19q-74 -18 -107 -49q-35 -35 -35 -74zM242 252q0 80 43 129q47 49 104 76q29 12 70 26q10 2 18 4 q37 8 55 13l138 30v-272q-55 -74 -131 -123q-70 -43 -144 -43q-72 0 -110 45q-43 47 -43 115zM293 1315q0 33 20 53q25 25 58 35q37 10 88 10q49 0 80 -8t61 -27q25 -18 37 -43q10 -31 10 -55q0 -45 -43 -74q-20 -12 -49 -18q-33 -6 -72 -6q-57 0 -100 14q-49 23 -68 47 q-22 29 -22 72z" />
<glyph unicode="&#xe6;" horiz-adv-x="1687" d="M68 209q0 -43 8 -70q10 -37 22 -57q33 -53 92 -82q55 -27 140 -27q57 0 102 19q45 16 98 53q55 41 140 125q37 -47 164 -123q129 -74 383 -74q86 0 172 25q84 23 167 72l17 41l16 43l-16 14q-131 -92 -273 -92q-111 0 -190 49q-82 47 -123 135q-25 51 -33 100 q-10 57 -10 117h250l149 2l121 4l76 9l78 14v53q0 121 -45 211q-45 92 -133 143q-88 47 -199 48h-20q-6 0 -31 -3l-12 -2l-68 -16q-82 -25 -133 -53q-61 -35 -103 -80q-33 -33 -51 -68q-6 35 -16 68q-29 66 -109 106q-90 47 -198 48h-19q-6 0 -24 -3q-18 -2 -19 -2l-57 -14 q-70 -23 -107 -43l-131 -74v-137l56 -14l16 43l16 43l21 49q39 27 78 39q41 10 86 10q254 0 254 -270l-195 -33q-74 -14 -119 -27l-8 -2q-59 -16 -84 -26q-84 -35 -139 -105q-57 -70 -57 -186zM242 252q0 80 43 129q47 49 104 76q29 12 70 26q10 2 18 4q37 8 55 13l138 30 v-272q-55 -74 -131 -123q-70 -43 -144 -43q-72 0 -110 45q-43 47 -43 115zM946 553q0 63 8 106q12 57 23 84q31 72 88 111q59 35 145 35q133 0 179 -94q45 -92 45 -242q-43 -8 -146 -8l-184 4z" />
<glyph unicode="&#xe7;" horiz-adv-x="1015" d="M100 492q0 -242 113 -373q59 -70 141 -103q80 -37 181 -36l-82 -152l8 -14q127 0 127 -111q0 -115 -180 -115v-53q43 -6 90 -6q86 0 166 39q84 41 84 141q0 88 -56 129q-55 39 -127 49l53 93q72 8 144 38q72 33 129 97q53 63 78 155l-60 29q-53 -115 -118 -166 q-66 -51 -177 -51q-164 0 -231 133q-70 131 -70 313q0 215 74 322q76 106 188 106q129 0 193 -178q18 -53 63 -53q43 0 82 27q41 29 41 77q0 49 -45 97q-47 47 -125 73q-43 16 -86 23q-45 6 -100 6q-174 0 -289 -74q-113 -74 -162 -196q-47 -125 -47 -266z" />
<glyph unicode="&#xe8;" horiz-adv-x="1007" d="M57 449q0 -145 58 -252q59 -111 161 -166q100 -57 244 -58q170 0 340 97l17 41l16 43l-16 14q-131 -92 -273 -92q-111 0 -190 49q-82 47 -123 135q-25 51 -33 100q-10 58 -10 117h250l149 2l121 4l76 9l78 14v53q0 121 -45 211q-45 92 -134 143q-88 47 -198 48h-21 q-6 0 -24 -3q-18 -2 -19 -2l-67 -16q-82 -25 -133 -53q-61 -35 -103 -80q-53 -53 -88 -148q-33 -92 -33 -210zM250 553q0 63 8 106q12 57 23 84q31 72 88 111q59 35 145 35q133 0 178 -94q45 -92 45 -242q-43 -8 -145 -8l-184 4zM260 1372q0 -23 23 -49q37 -33 92 -63 l268 -162h68l-295 282q-31 35 -51 43q-16 10 -39 11q-29 0 -47 -21q-18 -18 -19 -41z" />
<glyph unicode="&#xe9;" horiz-adv-x="999" d="M57 449q0 -145 58 -252q59 -111 161 -166q100 -57 244 -58q170 0 340 97l17 41l16 43l-16 14q-131 -92 -273 -92q-111 0 -190 49q-82 47 -123 135q-25 51 -33 100q-10 58 -10 117h250l149 2l121 4l76 9l78 14v53q0 121 -45 211q-45 92 -134 143q-88 47 -198 48h-21 q-6 0 -24 -3q-18 -2 -19 -2l-67 -16q-82 -25 -133 -53q-61 -35 -103 -80q-53 -53 -88 -148q-33 -92 -33 -210zM250 553q0 63 8 106q12 57 23 84q31 72 88 111q59 35 145 35q133 0 178 -94q45 -92 45 -242q-43 -8 -145 -8l-184 4zM315 1004q0 -8 19 -9q12 0 28 9q10 4 29 18 l2 2l359 324l49 45q18 16 18 28l-2 6q-6 14 -37 15q-66 0 -133 -68l-37 -41l-286 -315l-7 -10z" />
<glyph unicode="&#xea;" horiz-adv-x="991" d="M57 449q0 -145 58 -252q59 -111 161 -166q100 -57 244 -58q170 0 340 97l17 41l16 43l-16 14q-131 -92 -273 -92q-111 0 -190 49q-82 47 -123 135q-25 51 -33 100q-10 58 -10 117h250l149 2l121 4l76 9l78 14v53q0 121 -45 211q-45 92 -134 143q-88 47 -198 48h-21 q-6 0 -24 -3q-18 -2 -19 -2l-67 -16q-82 -25 -133 -53q-61 -35 -103 -80q-53 -53 -88 -148q-33 -92 -33 -210zM170 1077h80l272 303l271 -303h79l-311 365h-80zM250 553q0 63 8 106q12 57 23 84q31 72 88 111q59 35 145 35q133 0 178 -94q45 -92 45 -242q-43 -8 -145 -8 l-184 4z" />
<glyph unicode="&#xeb;" horiz-adv-x="1015" d="M57 449q0 -145 58 -252q59 -111 161 -166q100 -57 244 -58q170 0 340 97l17 41l16 43l-16 14q-131 -92 -273 -92q-111 0 -190 49q-82 47 -123 135q-25 51 -33 100q-10 58 -10 117h250l149 2l121 4l76 9l78 14v53q0 121 -45 211q-45 92 -134 143q-88 47 -198 48h-21 q-6 0 -24 -3q-18 -2 -19 -2l-67 -16q-82 -25 -133 -53q-61 -35 -103 -80q-53 -53 -88 -148q-33 -92 -33 -210zM147 1325q0 -47 35 -82t82 -35q45 0 80 35q37 35 37 82q0 29 -16 57q-16 31 -43 45q-27 15 -58 15q-51 0 -84 -33q-33 -35 -33 -84zM250 553q0 63 8 106 q12 57 23 84q31 72 88 111q59 35 145 35q133 0 178 -94q45 -92 45 -242q-43 -8 -145 -8l-184 4zM557 1325q0 -47 35 -82t82 -35q45 0 82 35q35 35 35 82q0 29 -17 57q-16 31 -43 45q-26 15 -57 15q-49 0 -82 -33q-35 -37 -35 -84z" />
<glyph unicode="&#xec;" horiz-adv-x="679" d="M55 1380q0 -23 23 -49q27 -25 92 -63l268 -162h68l-295 283q-35 35 -51 43q-16 10 -39 10q-33 0 -47 -19q-18 -18 -19 -43zM84 -8h504v69q-53 0 -84 9q-39 14 -51 26q-37 35 -37 72l2 16l2 9v452q0 72 6 141l12 132q-18 27 -49 26l-24 -6l-15 -6q-33 -12 -51 -19 q-14 -6 -27 -6q-6 -2 -12 -2t-12 -2l-66 -12l-98 -14v-62q168 0 168 -131v-491q0 -78 -59 -107q-57 -25 -109 -25v-69z" />
<glyph unicode="&#xed;" horiz-adv-x="589" d="M29 1004q0 -8 18 -9q12 0 29 9q10 4 28 18l2 2l359 324l49 45q18 16 18 28l-2 6q-6 14 -36 15q-66 0 -134 -68l-36 -41l-287 -315l-6 -10zM51 -8h504v69q-53 0 -84 9q-37 12 -51 26q-37 35 -37 72l2 16l2 9v452q0 72 6 141l13 132q-20 27 -50 26l-24 -6l-15 -6 q-33 -12 -51 -19q-14 -6 -26 -6q-2 0 -13 -2q-8 0 -14 -2l-63 -12l-99 -14v-62q168 0 168 -131v-491q0 -78 -59 -107q-57 -25 -109 -25v-69z" />
<glyph unicode="&#xee;" horiz-adv-x="673" d="M16 1061h74l250 317l246 -317h73l-284 381h-72zM125 -8h504v69q-53 0 -84 9q-39 14 -51 26q-37 35 -37 72l2 16l2 9v452q0 72 6 141l12 132q-18 27 -49 26l-24 -6l-15 -6q-31 -12 -49 -19q-18 -6 -29 -6q-6 -2 -12 -2t-12 -2l-66 -12l-98 -14v-62q168 0 168 -131v-491 q0 -78 -60 -107q-57 -25 -108 -25v-69z" />
<glyph unicode="&#xef;" horiz-adv-x="704" d="M33 1325q0 -47 35 -82t82 -35q45 0 81 35q35 35 35 82q0 31 -14 57q-16 31 -43 45q-26 15 -59 15q-49 0 -82 -33q-35 -37 -35 -84zM133 0h504v70q-53 0 -84 8q-37 12 -51 26q-37 35 -37 70l2 19l2 8v452q0 72 6 142l12 131q-18 27 -49 26l-24 -6l-15 -6q-33 -12 -51 -18 q-14 -6 -26 -7q-6 -2 -13 -2q-6 0 -12 -2l-66 -12l-98 -14v-62q168 0 168 -131v-491q0 -78 -59 -107q-57 -25 -109 -24v-70zM410 1325q0 -47 34 -82q35 -35 82 -35q45 0 80 35q37 35 37 82q0 29 -16 57q-16 31 -43 45q-27 15 -58 15q-51 0 -84 -33q-33 -35 -32 -84z" />
<glyph unicode="&#xf0;" horiz-adv-x="1083" d="M92 471q0 -106 29 -205q27 -92 86 -157q57 -68 141 -101q80 -33 191 -33q227 0 340 129q113 127 112 388v40q-4 23 -6 64q-2 29 -12 82q0 2 -2 8q-10 39 -29 92q-16 43 -37 78q-49 86 -112 166q-70 86 -179 178l224 103l-47 69l-246 -117q-102 86 -244 175l-82 -33v-19 l117 -92l94 -82l-229 -104l47 -70l244 115q88 -88 157 -184l-4 -7q-68 12 -96 13q-150 0 -252 -60q-104 -57 -154 -170q-51 -104 -51 -266zM287 471q0 428 252 428q53 0 92 -12q45 -16 65 -33q55 -43 78 -137q12 -49 19 -109q4 -78 4 -137q0 -203 -60 -315 q-57 -113 -198 -113q-135 0 -193 113q-59 112 -59 315z" />
<glyph unicode="&#xf1;" horiz-adv-x="1269" d="M29 -8l252 8l127 -4l124 -4v69q-66 0 -100 7q-35 10 -49 34q-18 29 -18 91v266q0 184 14 227q16 45 51 78q37 35 88 49q23 12 53 16q6 2 13 2q14 2 18 3h25q63 0 118 -27t82 -70q20 -29 27 -75q6 -39 6 -160v-316l-4 -96l-6 -98l45 6l53 2l125 -4l123 -4v69h-12 q-59 0 -97 11q-37 8 -49 34q-4 10 -8 35q-2 12 -2 52v385q0 113 -12 170q-12 59 -43 98q-35 41 -70 61q-47 31 -92 39q-29 10 -53 12q-18 2 -56 3q-63 0 -104 -15q-47 -16 -80 -41q-37 -25 -78 -65l-73 -70l16 148v4q0 31 -21 30l-20 -4l-27 -8l-20 -8q-49 -20 -100 -29 q-41 -10 -166 -26v-62h41q61 0 84 -8q27 -10 34 -37q8 -25 9 -86v-491q0 -59 -17 -89q-16 -29 -51 -34q-31 -8 -100 -9v-69zM51 1169l74 -86q49 82 80 121q35 43 67 62q35 18 76 18q59 0 113 -20l57 -25l70 -37l65 -31l60 -22q55 -18 106 -19q80 0 150 56q68 53 139 172 l-74 84q-100 -184 -221 -185q-37 0 -86 17l-55 22l-72 33q-10 6 -33 19q-2 0 -10 4q-8 6 -27 12l-6 2q-18 10 -32 12l-31 13q-59 20 -113 20q-43 0 -84 -12q-41 -16 -67 -41q-68 -55 -146 -189z" />
<glyph unicode="&#xf2;" horiz-adv-x="1122" d="M72 446q0 -143 59 -251q57 -106 162 -166q102 -55 242 -56q156 0 270 64q117 66 178 180q63 115 64 270q0 143 -58 250q-55 109 -160 166q-102 57 -245 58q-158 0 -271 -64q-117 -66 -178 -180q-63 -115 -63 -271zM260 530q0 66 8 107q10 51 25 88q31 80 96 123 q66 41 148 41q76 0 135 -35q63 -37 100 -96q43 -66 66 -150q20 -82 20 -205q0 -168 -74 -264q-74 -94 -202 -94q-100 0 -172 59q-74 59 -111 166q-12 33 -18 58q-6 29 -13 61q-8 57 -8 141zM342 1380q0 -23 23 -49q27 -25 92 -63l268 -162h68l-295 283q-31 35 -52 43 q-16 10 -38 10q-29 0 -48 -19q-18 -18 -18 -43z" />
<glyph unicode="&#xf3;" horiz-adv-x="1105" d="M72 446q0 -143 59 -251q57 -106 162 -166q102 -55 242 -56q156 0 270 64q117 66 178 180q63 115 64 270q0 143 -58 250q-55 109 -160 166q-102 57 -245 58q-158 0 -271 -64q-117 -66 -178 -180q-63 -115 -63 -271zM260 530q0 66 8 107q10 51 25 88q31 80 96 123 q66 41 148 41q76 0 135 -35q63 -37 100 -96q43 -66 66 -150q20 -82 20 -205q0 -168 -74 -264q-74 -94 -202 -94q-100 0 -172 59q-74 59 -111 166q-12 33 -18 58q-6 29 -13 61q-8 57 -8 141zM332 1004q0 -8 18 -9q12 0 29 9q10 4 29 18l2 2l358 324l49 45q18 16 19 28l-2 6 q-6 14 -37 15q-66 0 -133 -68l-37 -41l-287 -315l-6 -10z" />
<glyph unicode="&#xf4;" horiz-adv-x="1130" d="M72 446q0 -143 59 -251q57 -106 162 -166q102 -55 242 -56q156 0 270 64q117 66 178 180q63 115 64 270q0 143 -58 250q-55 109 -160 166q-102 57 -245 58q-158 0 -271 -64q-117 -66 -178 -180q-63 -115 -63 -271zM195 1047h90l303 329l301 -329h92l-350 395h-86z M260 530q0 66 8 107q10 51 25 88q31 80 96 123q66 41 148 41q76 0 135 -35q63 -37 100 -96q43 -66 66 -150q20 -82 20 -205q0 -168 -74 -264q-74 -94 -202 -94q-100 0 -172 59q-74 59 -111 166q-12 33 -18 58q-6 29 -13 61q-8 57 -8 141z" />
<glyph unicode="&#xf5;" horiz-adv-x="1120" d="M72 446q0 -143 59 -251q57 -106 162 -166q102 -55 242 -56q156 0 270 64q117 66 178 180q63 115 64 270q0 143 -58 250q-55 109 -160 166q-102 57 -245 58q-158 0 -271 -64q-117 -66 -178 -180q-63 -115 -63 -271zM129 1169l59 -86q37 80 62 123q27 39 53 60q29 18 62 18 q18 0 47 -4q12 -2 30 -12l11 -4q33 -14 102 -60q57 -37 98 -53q41 -20 86 -21q29 0 62 17q33 12 55 39q57 57 113 172l-60 84q-80 -184 -176 -185q-29 0 -65 19l-45 22l-58 33q-51 33 -110 60q-43 20 -90 20q-68 0 -121 -53q-47 -49 -115 -189zM260 530q0 66 8 107 q10 51 25 88q31 80 96 123q66 41 148 41q76 0 135 -35q63 -37 100 -96q43 -66 66 -150q20 -82 20 -205q0 -168 -74 -264q-74 -94 -202 -94q-100 0 -172 59q-74 59 -111 166q-12 33 -18 58q-6 29 -13 61q-8 57 -8 141z" />
<glyph unicode="&#xf6;" horiz-adv-x="1097" d="M55 446q0 -143 60 -251q57 -106 161 -166q102 -55 242 -56q158 0 270 64q117 63 181 180q61 117 61 270q0 143 -55 250q-59 109 -162 166q-102 57 -246 58q-156 0 -270 -64q-117 -66 -178 -180q-64 -115 -64 -271zM197 1325q0 -47 34 -82q35 -35 82 -35q45 0 82 35 q35 35 35 82q0 31 -14 57q-16 31 -43 45q-27 15 -60 15q-49 0 -82 -33q-35 -37 -34 -84zM244 530q0 66 8 107q10 51 24 88q31 80 97 123q66 41 147 41q76 0 135 -35q61 -37 103 -96q43 -70 63 -150q20 -82 21 -205q0 -168 -74 -264q-74 -94 -203 -94q-96 0 -172 59 q-74 59 -110 166q-12 33 -19 58q-8 35 -10 61q-10 71 -10 141zM647 1325q0 -47 35 -82t82 -35q45 0 82 35q35 35 35 82q0 29 -17 57q-16 31 -43 45q-26 15 -57 15q-49 0 -82 -33q-35 -37 -35 -84z" />
<glyph unicode="&#xf7;" horiz-adv-x="1167" d="M88 455h991v116h-991v-116zM461 176q0 -53 35 -88t88 -35q49 0 84 35q33 39 32 88q0 47 -34 82q-33 37 -82 37q-47 0 -86 -35q-37 -33 -37 -84zM461 852q0 -53 35 -88t88 -35q49 0 84 35q33 39 32 88q0 45 -34 82q-33 37 -82 37q-51 0 -86 -35q-37 -37 -37 -84z" />
<glyph unicode="&#xf8;" horiz-adv-x="1122" d="M72 446q0 -141 59 -249q59 -106 160 -166q29 -16 65 -31l-69 -244h137l63 217h48q156 0 270 64q117 66 178 180q63 115 64 270q0 143 -58 252q-59 113 -160 164q-29 18 -63 29l88 303h-137l-80 -277q-6 2 -29 3h-24q-158 0 -271 -64q-117 -66 -178 -180 q-63 -115 -63 -271zM260 530q0 66 8 107q10 51 25 88q31 80 96 123q66 41 148 41q44 0 75 -8l-221 -762q-61 57 -92 151q-39 111 -39 260zM512 53l219 758q25 -20 41 -51q45 -70 66 -154q20 -82 20 -203q0 -168 -74 -264q-74 -94 -202 -94q-27 0 -37 2q-6 2 -17 4 q-10 0 -16 2z" />
<glyph unicode="&#xf9;" horiz-adv-x="1245" d="M35 815h41q61 0 84 -8q27 -10 35 -37q8 -25 8 -86v-397l4 -78l6 -57q12 -47 45 -86q78 -92 223 -93q121 0 201 50q70 43 168 149q0 -8 -6 -104q-4 -53 -4 -76l43 6l55 2l125 -4l123 -4v69h-12q-39 0 -58 2q-12 2 -33 7q-2 0 -10 2q-33 8 -45 34q-4 10 -8 35q-2 12 -2 52 v452l4 111l14 162v4q0 31 -20 30l-19 -4l-28 -10l-21 -6q-55 -20 -100 -29q-41 -10 -166 -26v-62h41q61 0 84 -8q27 -10 35 -37q8 -25 8 -86v-305l-2 -49l-8 -51q-25 -70 -109 -129q-82 -57 -164 -58q-94 0 -145 58q-51 55 -51 155v340l4 111l14 162v4q0 31 -20 30l-19 -4 l-28 -10l-21 -6q-49 -20 -100 -29q-41 -10 -166 -26v-62zM367 1380q0 -23 22 -49q27 -25 92 -63l269 -162h67l-295 283q-31 35 -51 43q-16 10 -39 10q-29 0 -47 -19q-18 -18 -18 -43z" />
<glyph unicode="&#xfa;" horiz-adv-x="1245" d="M35 815h41q61 0 84 -8q27 -10 35 -37q8 -25 8 -86v-397l4 -78l6 -57q12 -47 45 -86q78 -92 223 -93q121 0 201 50q70 43 168 149q0 -8 -6 -104q-4 -53 -4 -76l43 6l55 2l125 -4l123 -4v69h-12q-39 0 -58 2q-12 2 -33 7q-2 0 -10 2q-33 8 -45 34q-4 10 -8 35q-2 12 -2 52 v452l4 111l14 162v4q0 31 -20 30l-19 -4l-28 -10l-21 -6q-55 -20 -100 -29q-41 -10 -166 -26v-62h41q61 0 84 -8q27 -10 35 -37q8 -25 8 -86v-305l-2 -49l-8 -51q-25 -70 -109 -129q-82 -57 -164 -58q-94 0 -145 58q-51 55 -51 155v340l4 111l14 162v4q0 31 -20 30l-19 -4 l-28 -10l-21 -6q-49 -20 -100 -29q-41 -10 -166 -26v-62zM414 1004q0 -8 18 -9q12 0 29 9q10 4 28 18l3 2l358 324l49 45q18 16 19 28l-3 6q-6 14 -36 15q-66 0 -134 -68l-36 -41l-287 -315l-6 -10z" />
<glyph unicode="&#xfb;" horiz-adv-x="1210" d="M35 815h41q61 0 84 -8q27 -10 35 -37q8 -25 8 -86v-397l4 -78l6 -57q12 -47 45 -86q78 -92 223 -93q121 0 201 50q70 43 168 149q0 -8 -6 -104q-4 -53 -4 -76l43 6l55 2l125 -4l123 -4v69h-12q-39 0 -58 2q-12 2 -33 7q-2 0 -10 2q-33 8 -45 34q-4 10 -8 35q-2 12 -2 52 v452l4 111l14 162v4q0 31 -20 30l-19 -4l-28 -10l-21 -6q-55 -20 -100 -29q-41 -10 -166 -26v-62h41q61 0 84 -8q27 -10 35 -37q8 -25 8 -86v-305l-2 -49l-8 -51q-25 -70 -109 -129q-82 -57 -164 -58q-94 0 -145 58q-51 55 -51 155v340l4 111l14 162v4q0 31 -20 30l-19 -4 l-28 -10l-21 -6q-49 -20 -100 -29q-41 -10 -166 -26v-62zM162 1042h98l332 334l330 -334h100l-383 400h-94z" />
<glyph unicode="&#xfc;" horiz-adv-x="1220" d="M35 815h41q61 0 84 -8q27 -10 35 -37q8 -25 8 -86v-397l4 -78l6 -57q12 -47 45 -86q78 -92 223 -93q121 0 201 50q70 43 168 149q0 -8 -6 -104q-4 -53 -4 -76l43 6l55 2l125 -4l123 -4v69h-12q-39 0 -58 2q-12 2 -33 7q-2 0 -10 2q-33 8 -45 34q-4 10 -8 35q-2 12 -2 52 v452l4 111l14 162v4q0 31 -20 30l-19 -4l-28 -10l-21 -6q-55 -20 -100 -29q-41 -10 -166 -26v-62h41q61 0 84 -8q27 -10 35 -37q8 -25 8 -86v-305l-2 -49l-8 -51q-25 -70 -109 -129q-82 -57 -164 -58q-94 0 -145 58q-51 55 -51 155v340l4 111l14 162v4q0 31 -20 30l-19 -4 l-28 -10l-21 -6q-49 -20 -100 -29q-41 -10 -166 -26v-62zM139 1333q0 -47 35 -82t82 -34q45 0 82 34q35 35 35 82q0 29 -17 58q-16 31 -43 45q-26 14 -57 14q-49 0 -84 -35q-33 -33 -33 -82zM778 1333q0 -47 35 -82t82 -34q45 0 82 34q35 35 35 82q0 29 -17 58 q-16 31 -43 45q-26 14 -57 14q-49 0 -84 -35q-33 -33 -33 -82z" />
<glyph unicode="&#xfd;" horiz-adv-x="1163" d="M12 870h39q49 0 86 -49q35 -45 94 -207q45 -106 136 -323q53 -133 135 -348l-47 -125l-27 -66l-29 -57q-35 -66 -75 -105q-47 -41 -93 -41q-29 0 -55 17q-31 18 -53 47h-23l-49 -156q43 -23 66 -28q23 -6 59 -7q92 0 158 54q63 51 117 174l127 289l129 307l41 96l45 102 l51 111l102 221l12 33q14 25 23 33q14 14 43 20q6 2 14 4q8 0 15 2q10 2 45 2v70l-193 -8l-84 6q-39 0 -57 2h-51v-70h73q68 0 68 -41q0 -55 -88 -264q-111 -262 -170 -391l-117 275q-61 141 -106 278l-19 45q-16 43 -16 59t16 27q10 6 31 10q6 2 27 2h73v70l-235 -8l-123 6 l-115 2v-70zM438 1004q0 -8 19 -9q12 0 28 9q16 8 29 20l360 324l50 45q16 16 16 28v6q-6 14 -37 15q-63 0 -135 -68l-37 -41l-287 -315l-6 -10v-4z" />
<glyph unicode="&#xfe;" horiz-adv-x="1241" d="M47 -412v-59h531v59l-52 4l-49 7l-10 2q-37 8 -47 14q-16 10 -21 29q-6 18 -6 63v316q41 -25 101 -33l20 -4l14 -4q8 -2 17 -2q12 -2 16 -3l66 -2q115 0 200 27q96 33 162 92q72 63 113 172q39 104 39 258q0 35 -4 92q-4 27 -13 74l-4 15q-10 45 -24 83q-20 53 -33 80 q-80 160 -322 160q-51 0 -104 -16q-39 -12 -86 -33q-29 -16 -86 -53l-72 -45v585l-14 13l-322 -52v-51l78 -8q43 -6 53 -20q12 -14 13 -74v-1567q0 -51 -11 -76q-10 -23 -36 -28q-16 -6 -48 -11q-29 -4 -59 -4zM393 322v335q0 66 27 117q41 74 100 109t144 35q57 0 114 -33 q59 -33 107 -123q43 -88 43 -250q0 -465 -299 -465q-78 0 -137 41t-84 109q-14 43 -15 125z" />
<glyph unicode="&#xff;" horiz-adv-x="1196" d="M12 870h39q49 0 86 -49q35 -45 94 -207q45 -106 136 -323q53 -133 135 -348l-47 -125l-27 -66l-29 -57q-35 -66 -75 -105q-47 -41 -93 -41q-29 0 -55 17q-31 18 -53 47h-23l-49 -156q43 -23 66 -28q23 -6 59 -7q92 0 158 54q63 51 117 174l127 289l129 307l41 96l45 102 l51 111l102 221l12 33q14 25 23 33q14 14 43 20q6 2 14 4q8 0 15 2q10 2 45 2v70l-193 -8l-84 6q-39 0 -57 2h-51v-70h73q68 0 68 -41q0 -55 -88 -264q-111 -262 -170 -391l-117 275q-61 141 -106 278l-19 45q-16 43 -16 59t16 27q10 6 31 10q6 2 27 2h73v70l-235 -8l-123 6 l-115 2v-70zM188 1325q0 -47 35 -82t82 -35q45 0 80 35q37 35 37 82q0 29 -16 57q-16 31 -44 45q-26 15 -57 15q-51 0 -84 -33q-33 -35 -33 -84zM721 1325q0 -47 35 -82t82 -35q45 0 82 35q35 35 34 82q0 29 -16 57q-18 33 -41 45q-26 15 -59 15q-49 0 -82 -33 q-35 -37 -35 -84z" />
<glyph unicode="&#x152;" horiz-adv-x="2099" d="M98 698q0 -205 80 -356q80 -145 207 -227q23 -14 64 -35q18 -10 63 -27l68 -20l79 -17l74 -10l58 -4l127 -2h1097l25 354h-62q-14 -90 -47 -149q-27 -57 -71 -86q-47 -29 -109 -37q-72 -10 -170 -10q-51 0 -72 2q-41 4 -59 6q-49 6 -78 18q-31 18 -43 56q-12 35 -12 102 v442h287q82 0 125 -16q41 -16 53 -53q10 -18 12 -45q8 -35 10 -64h62v432h-62q-16 -84 -26 -112q-12 -31 -49 -47q-43 -16 -125 -17h-287v496q0 43 14 57q16 16 62 17h200q115 0 176 -21q61 -20 91 -76q29 -53 43 -168h61v336h-1036l-103 -2l-88 -6q-92 -8 -180 -35 t-176 -82q-78 -49 -145 -133q-63 -82 -101 -198q-37 -113 -37 -263zM328 709q0 274 127 456q125 180 426 181q115 0 176 -23q57 -20 57 -84v-1059q0 -66 -53 -88q-49 -20 -184 -20q-203 0 -326 92t-172 235q-16 41 -25 76q-6 25 -14 74q-12 78 -12 160z" />
<glyph unicode="&#x153;" horiz-adv-x="1806" d="M100 502q0 -250 125 -387q127 -139 365 -140q119 0 217 43q96 39 156 117q109 -160 364 -160q104 0 186 37q84 41 136 105q49 59 77 147l-61 33q-49 -102 -119 -160q-70 -57 -178 -57q-121 0 -186 67q-68 66 -90 168q-25 102 -25 224h590q39 0 59 14q23 18 23 61 q0 88 -31 181q-31 94 -123 163q-88 70 -260 70q-117 0 -209 -47q-86 -45 -145 -117q-59 80 -156 121q-94 43 -225 43q-244 0 -367 -137t-123 -389zM313 502q0 78 9 133q12 74 22 110q35 109 96 158q66 53 150 53q90 0 155 -53q61 -51 93 -155q31 -104 30 -246 q0 -141 -32 -246q-35 -106 -93 -158q-57 -51 -153 -51q-88 0 -154 55q-63 53 -94 158q-29 105 -29 242zM1069 614v23q0 6 2 25l2 18l14 74q20 76 76 141q53 61 150 61q90 0 137 -47q45 -49 61 -108q14 -57 15 -119q0 -35 -15 -49q-14 -18 -55 -19h-387z" />
<glyph unicode="&#x178;" horiz-adv-x="1204" d="M-25 1358q27 0 37 -2q14 -2 41 -6q20 -2 39 -15q39 -16 66 -80l192 -360l144 -281q31 -61 30 -118v-306q0 -59 -12 -84q-8 -25 -47 -30q-39 -8 -74 -13q-37 -4 -72 -4h-12v-59h637v59l-78 4l-75 11q-45 12 -54 32q-10 25 -10 84v314q0 70 27 121q80 160 164 313 q111 209 159 285q39 61 60 88q20 25 47 30q29 10 43 13q6 2 14 2t14 2h39v59h-448v-59l110 -10q33 -6 33 -31l-2 -17l-6 -18l-74 -160l-49 -102l-43 -88l-133 -266h-4q-18 35 -37 67q-35 61 -55 101q-43 80 -80 153q-74 145 -144 297q-8 10 -8 33q0 27 31 29l121 12v59h-531 v-59zM307 1612q0 -45 33 -78q35 -35 86 -35q57 0 88 35t31 78q0 27 -15 53q-14 27 -41 41q-29 16 -63 16q-55 0 -86 -32q-33 -33 -33 -78zM733 1612q0 -45 33 -78q35 -35 86 -35q57 0 88 35t31 78q0 27 -15 53q-14 27 -41 41q-29 16 -63 16q-55 0 -86 -32q-33 -33 -33 -78z " />
<glyph unicode="&#x2c6;" horiz-adv-x="819" d="M96 1151l39 -43l211 158q47 31 64 30q25 0 63 -30l211 -158l39 43l-240 272q-45 51 -73 52q-29 0 -74 -52z" />
<glyph unicode="&#x2dc;" horiz-adv-x="819" d="M45 1180l39 -27q39 57 70 82q33 23 77 22q53 0 164 -38l58 -19l22 -6q23 -6 31 -8q20 -4 31 -4l22 -2q68 0 123 53q45 45 90 141l-41 23q-41 -49 -72 -74q-16 -14 -30 -16q-20 -4 -37 -4l-45 6l-47 12l-64 20q-98 39 -162 39q-61 0 -104 -30q-43 -31 -66 -66 q-31 -51 -59 -104z" />
<glyph unicode="&#x2000;" horiz-adv-x="911" />
<glyph unicode="&#x2001;" horiz-adv-x="1823" />
<glyph unicode="&#x2002;" horiz-adv-x="911" />
<glyph unicode="&#x2003;" horiz-adv-x="1823" />
<glyph unicode="&#x2004;" horiz-adv-x="607" />
<glyph unicode="&#x2005;" horiz-adv-x="455" />
<glyph unicode="&#x2006;" horiz-adv-x="303" />
<glyph unicode="&#x2007;" horiz-adv-x="303" />
<glyph unicode="&#x2008;" horiz-adv-x="227" />
<glyph unicode="&#x2009;" horiz-adv-x="364" />
<glyph unicode="&#x200a;" horiz-adv-x="101" />
<glyph unicode="&#x2010;" horiz-adv-x="684" d="M41 403h549l55 158h-549z" />
<glyph unicode="&#x2011;" horiz-adv-x="684" d="M41 403h549l55 158h-549z" />
<glyph unicode="&#x2012;" horiz-adv-x="684" d="M41 403h549l55 158h-549z" />
<glyph unicode="&#x2013;" horiz-adv-x="2048" d="M0 455h2048v116h-2048v-116z" />
<glyph unicode="&#x2014;" d="M0 455h1024v116h-1024v-116z" />
<glyph unicode="&#x2018;" horiz-adv-x="569" d="M147 1155q0 -80 39 -127q39 -49 95 -49q41 0 69 29q29 29 29 69q0 31 -35 94q-33 57 -33 99q0 98 113 229l-35 33l-27 -27q-20 -18 -22 -20q-12 -12 -39 -43l-6 -6q-47 -45 -80 -93q-68 -94 -68 -188z" />
<glyph unicode="&#x2019;" horiz-adv-x="569" d="M147 999l35 -32q106 100 172 188q70 90 70 188q0 80 -39 127q-39 49 -94 50q-43 0 -70 -27q-29 -33 -28 -72q0 -33 34 -92q33 -57 33 -100q0 -98 -113 -230z" />
<glyph unicode="&#x201a;" horiz-adv-x="569" d="M147 -223l35 -33q102 92 172 188q70 90 70 189q0 80 -39 127q-39 49 -94 49q-43 0 -72 -29q-27 -27 -26 -69q0 -33 34 -93q33 -59 33 -100q0 -98 -113 -229z" />
<glyph unicode="&#x201c;" horiz-adv-x="937" d="M147 1155q0 -80 39 -127q39 -49 95 -49q41 0 69 29q29 29 29 69q0 31 -35 94q-33 57 -33 99q0 98 113 229l-35 33l-27 -27q-20 -18 -22 -20q-12 -12 -39 -43l-6 -6q-47 -45 -80 -93q-68 -94 -68 -188zM516 1155q0 -80 39 -127q41 -49 94 -49q43 0 72 29q27 27 27 69 q0 35 -33 94q-35 59 -35 99q0 98 113 229l-35 33q-113 -102 -174 -191q-68 -94 -68 -186z" />
<glyph unicode="&#x201d;" horiz-adv-x="937" d="M147 999l35 -32q106 100 172 188q70 90 70 188q0 80 -39 127q-39 49 -94 50q-43 0 -70 -27q-29 -33 -28 -72q0 -33 34 -92q33 -57 33 -100q0 -98 -113 -230zM516 999l35 -32q111 102 174 188q68 92 68 188q0 80 -39 127q-39 49 -95 50q-43 0 -69 -27q-29 -33 -29 -72 q0 -16 2 -22q2 -4 2 -8q0 -6 2 -11l25 -47q20 -35 29 -53q8 -23 8 -51q0 -98 -113 -230z" />
<glyph unicode="&#x201e;" horiz-adv-x="937" d="M147 -223l35 -33q102 92 172 188q70 90 70 189q0 80 -39 127q-39 49 -94 49q-43 0 -72 -29q-27 -27 -26 -69q0 -33 34 -93q33 -59 33 -100q0 -98 -113 -229zM516 -223l35 -33q109 100 176 193q66 90 66 184q0 80 -39 127q-39 49 -95 49q-43 0 -71 -29q-27 -27 -27 -69 q0 -33 35 -93q33 -59 33 -100q0 -98 -113 -229z" />
<glyph unicode="&#x2022;" horiz-adv-x="837" d="M92 721q0 -88 45 -164t119 -119q76 -45 164 -45q63 0 127 29q66 29 102 70q47 47 72 104q25 59 24 125q0 66 -26 127q-31 66 -72 106q-41 43 -102 70q-31 12 -62 18q-26 7 -63 7q-86 0 -162 -45q-74 -45 -121 -123q-45 -76 -45 -160z" />
<glyph unicode="&#x2026;" horiz-adv-x="2048" d="M213 104q0 -57 37 -94q35 -35 92 -35q59 0 94 37q35 39 35 92q0 59 -35 97q-35 37 -94 37t-92 -37q-37 -39 -37 -97zM895 104q0 -57 37 -94q35 -35 92 -35q61 0 94 37q35 39 35 92q0 59 -35 97q-33 37 -94 37q-57 0 -92 -37q-37 -39 -37 -97zM1577 104q0 -57 37 -94 q35 -35 92 -35q61 0 94 37q35 39 35 92q0 59 -35 97q-33 37 -94 37q-57 0 -92 -37q-37 -39 -37 -97z" />
<glyph unicode="&#x202f;" horiz-adv-x="364" />
<glyph unicode="&#x2039;" horiz-adv-x="526" d="M84 489q0 -16 10 -32l307 -373l41 33l-161 336q-8 14 -9 36q0 23 9 33l161 334l-41 35l-307 -371q-10 -14 -10 -31z" />
<glyph unicode="&#x203a;" horiz-adv-x="526" d="M84 117l41 -33l307 373q10 16 10 32q0 20 -10 31l-307 371l-41 -35l162 -334q10 -16 10 -33q-4 -27 -10 -36z" />
<glyph unicode="&#x205f;" horiz-adv-x="455" />
<glyph unicode="&#x2122;" horiz-adv-x="2252" d="M92 1210h43q12 68 31 99q23 35 57 43q41 10 115 10h65v-668q0 -33 -8 -47q-10 -16 -37 -22l-41 -9q-4 0 -10 -2h-20h-25v-47h443v47l-54 2l-45 9q-31 8 -37 22q-6 12 -6 47v668h70q76 0 112 -12q37 -12 56 -43q20 -33 28 -97h43v207h-780v-207zM944 567h342v47 q-92 10 -112 19q-31 16 -31 51l-6 66l-2 79v476h8l340 -715h43l342 715h8v-611q0 -27 -6 -49q-8 -14 -31 -20l-33 -9q-10 -2 -24 -2h-21v-47h385v47l-49 7q-4 2 -8 2q-6 0 -10 2h-13q-25 10 -28 22q-6 16 -6 47v596q0 51 14 60q20 12 39 14q25 6 61 6v47h-305l-57 -131 l-92 -194l-138 -293h-4l-137 291l-76 163q-39 82 -73 164h-312v-47q84 -10 99 -20q16 -10 16 -60v-461q0 -70 -4 -139q-6 -49 -33 -57q-25 -12 -86 -19v-47z" />
<glyph unicode="&#x25fc;" horiz-adv-x="952" d="M0 0v952h952v-952h-952z" />
</font>
</defs>
</svg>
